<?xml version="1.0" encoding="utf-8"?>
<!-- Generator: Adobe Illustrator 24.0.0, SVG Export Plug-In . SVG Version: 6.00 Build 0)  -->
<svg version="1.1" id="Layer_1" xmlns="http://www.w3.org/2000/svg" xmlns:xlink="http://www.w3.org/1999/xlink" x="0px" y="0px"
	 viewBox="0 0 120 120" style="enable-background:new 0 0 120 120;" xml:space="preserve">
<style type="text/css">
	.st0{fill:#E1F3FF;}
	.st1{fill:url(#SVGID_1_);}
	.st2{fill:#BDE0FF;}
	.st3{fill:url(#SVGID_2_);}
	.st4{fill:url(#SVGID_3_);}
	.st5{fill:#FF1D9C;}
	.st6{fill:#4F31E0;}
	.st7{fill:#6877FF;}
	.st8{fill:url(#SVGID_4_);}
	.st9{fill:url(#SVGID_5_);}
	.st10{fill:url(#SVGID_6_);}
	.st11{opacity:0.62;fill:url(#SVGID_7_);}
	.st12{opacity:0.5;fill:#361488;}
	.st13{fill:url(#SVGID_8_);}
	.st14{fill:url(#SVGID_9_);}
	.st15{fill:url(#SVGID_10_);}
	.st16{opacity:0.62;fill:url(#SVGID_11_);}
	.st17{fill:#981382;}
	.st18{fill:url(#SVGID_12_);}
	.st19{fill:url(#SVGID_13_);}
	.st20{opacity:0.62;fill:url(#SVGID_14_);}
	.st21{fill:#FFFFFF;}
	.st22{fill:url(#SVGID_15_);}
	.st23{fill:url(#SVGID_16_);}
	.st24{opacity:0.81;fill:url(#SVGID_17_);}
</style>
<g>
	<path class="st0" d="M14.6,59.6c-0.9-19.8,26.9-44.6,50.8-40.4c25.3,4.3,47.5,59.3,23.5,77.8C65,115.4,15.6,79.7,14.6,59.6z"/>
	<g>
		
			<linearGradient id="SVGID_1_" gradientUnits="userSpaceOnUse" x1="57.4972" y1="278.9272" x2="57.4972" y2="241.2765" gradientTransform="matrix(0.4389 0.8985 -0.8985 0.4389 291.0117 -114.8821)">
			<stop  offset="0" style="stop-color:#1C257B"/>
			<stop  offset="1" style="stop-color:#6A2C9A"/>
		</linearGradient>
		<path class="st1" d="M68.4,64.9c0,0,0.7-22.1,24.9-34.9c0,0,7.1,20.3-19,40.6L68.4,64.9z"/>
		<path class="st2" d="M92.4,31.9L72,65.8l-1.8-5.1C70.1,60.7,72.5,40.8,92.4,31.9z"/>
	</g>
	<g>
		
			<radialGradient id="SVGID_2_" cx="133.9939" cy="115.7458" r="17.2565" gradientTransform="matrix(-0.9492 -0.3147 -0.3147 0.9492 209.2477 -24.7298)" gradientUnits="userSpaceOnUse">
			<stop  offset="0" style="stop-color:#3996F7"/>
			<stop  offset="1" style="stop-color:#6840D5"/>
		</radialGradient>
		<path class="st3" d="M50.1,67.9c0,0,5.7-19.7-13.7-30.3c0,0-8.3,17.9,11.2,29.6L50.1,67.9z"/>
		<path class="st2" d="M36.4,37.6l13.7,30.3l-2.9-1.7C47.2,66.2,30.7,56.4,36.4,37.6z"/>
	</g>
	<g>
		
			<radialGradient id="SVGID_3_" cx="-283.8686" cy="102.6818" r="11.335" gradientTransform="matrix(0.9681 0.2507 -0.2507 0.9681 387.4003 21.4492)" gradientUnits="userSpaceOnUse">
			<stop  offset="0" style="stop-color:#3996F7"/>
			<stop  offset="1" style="stop-color:#6840D5"/>
		</radialGradient>
		<path class="st4" d="M75.5,61.9c0,0,3.8-12.9,18.4-11.8c0,0-1.8,12.8-16.7,12.3L75.5,61.9z"/>
		<path class="st2" d="M93.8,50L75.5,61.9l2.2,0.1C77.7,62,90.3,62.4,93.8,50z"/>
	</g>
	<polygon class="st5" points="13.1,40.9 18.9,32 22,34.1 15.8,42.5 	"/>
	<polygon class="st6" points="84.2,27.8 80.1,33.3 78.4,31.9 82.1,26.8 	"/>
	<polygon class="st6" points="49.4,35.3 42.7,36.9 42.3,34.8 48.4,33.2 	"/>
	<polygon class="st7" points="62.4,24.7 61.7,16.4 64.5,14.7 66.7,24.8 	"/>
	<g>
		<g>
			<g>
				
					<radialGradient id="SVGID_4_" cx="39.6357" cy="66.2203" r="14.0655" gradientTransform="matrix(0.9942 -0.1077 0.1077 0.9942 -14.1969 22.0527)" gradientUnits="userSpaceOnUse">
					<stop  offset="0" style="stop-color:#A157FF"/>
					<stop  offset="1" style="stop-color:#63399A"/>
				</radialGradient>
				<path class="st8" d="M42.1,82.4l-0.3,0.5l1.6,6.4c0,0.1,0,0.2,0.1,0.3c0.2,1.4,0.2,3.2,0.1,4l-0.7-0.2L38,92l-5-1.4l-9.6,5
					c-0.3-0.6-0.7-2.7-0.8-4.4l0-0.1c0,0,0,0,0,0l0.3-6.3l-0.4-0.4l-7.3-7.2c-0.4-1.2-0.6-1.8-0.3-2.9l10.5-1.1l4.3-0.4l7.1-0.8
					L47.3,71c0.4,0.9,0.6,1.5,0.3,2.9L42.1,82.4z"/>
				
					<radialGradient id="SVGID_5_" cx="39.631" cy="61.7816" r="15.8935" gradientTransform="matrix(0.9942 -0.1077 0.1077 0.9942 -14.1969 22.0527)" gradientUnits="userSpaceOnUse">
					<stop  offset="0" style="stop-color:#A157FF"/>
					<stop  offset="1" style="stop-color:#63399A"/>
				</radialGradient>
				<path class="st9" d="M42.1,82.5c-0.1,0.1-0.2,0.3-0.4,0.4l1.3,7.8l0.5,2.8c-0.2,0-0.5,0-0.7,0c0,0,0,0-0.2,0
					c-0.5,0-0.9-0.1-1.4-0.1c-0.3,0-0.6-0.1-0.9-0.2c-0.2,0-0.4-0.1-0.6-0.1C39.5,93,39.2,93,39,92.9c-0.2-0.1-0.5-0.1-0.7-0.2
					c0,0-0.1,0-0.1,0c-0.1,0-0.1-0.1-0.2-0.1c-1.8-0.6-3.4-1.3-4.9-1.9c-3,2.2-5.6,3.4-9.6,5l-0.1-2.9l-0.4-7.9
					c-0.1-0.1-0.3-0.2-0.4-0.3c-3.1-2.3-5.6-4.4-7.3-7.3l1.3-0.5l8.8-3.3l0.1-0.2l2.3-4.5l2.5-5l6.6,8.3l0.1,0.1l9.1,1.4l1.6,0.2
					C46.2,77.5,44.7,79.6,42.1,82.5z"/>
				
					<radialGradient id="SVGID_6_" cx="38.2889" cy="49.1371" r="18.3102" gradientTransform="matrix(0.9942 -0.1077 0.1077 0.9942 -14.1969 22.0527)" gradientUnits="userSpaceOnUse">
					<stop  offset="0" style="stop-color:#FF81FF"/>
					<stop  offset="1" style="stop-color:#9552FF"/>
				</radialGradient>
				<path class="st10" d="M46.1,73.6c-1.7,2.7-4.7,6.4-4.7,6.4s0.3,1,0.6,2.4c0,0,0,0.1,0,0.1c0.6,2.2,1.3,5.4,1.3,7
					c0,0.6-0.1,1-0.3,1.1c0,0-0.1,0-0.1,0.1c-0.2,0.1-0.5,0.1-0.9,0c0,0,0,0-0.1,0c-0.2,0-0.3,0-0.5-0.1c-0.3,0-0.5-0.1-0.8-0.2
					c-0.8-0.2-1.7-0.5-2.6-0.7l0,0c-2.2-0.7-4.4-1.6-5.1-1.8c-0.2-0.1-0.3-0.1-0.3-0.1s-7.6,5.1-9.4,5c-0.1,0-0.1,0-0.2,0
					c-0.2-0.1-0.4-0.7-0.5-1.6c0,0,0,0,0,0c-0.2-1.7-0.2-4.5-0.1-6.6c0,0,0-0.1,0-0.1c0-1.4,0.1-2.5,0.1-2.5s-3.8-2.9-6.1-5.2
					c-1-1-1.7-1.9-1.6-2.4c0.2-1.3,10.1-3.8,10.1-3.8s0.7-1.9,1.6-4l0,0c1.1-2.6,2.5-5.6,3.3-5.7c1.5-0.2,6.8,8.4,6.8,8.4
					s10.6,0.6,10.7,1.6C47.4,71.4,46.9,72.4,46.1,73.6z"/>
			</g>
			
				<linearGradient id="SVGID_7_" gradientUnits="userSpaceOnUse" x1="39.5846" y1="73.8113" x2="48.9685" y2="73.8113" gradientTransform="matrix(0.9942 -0.1077 0.1077 0.9942 -14.1969 22.0527)">
				<stop  offset="0" style="stop-color:#8B8BE0"/>
				<stop  offset="1" style="stop-color:#A177B7"/>
			</linearGradient>
			<path class="st11" d="M42.8,93.5c0,0,0,0-0.2,0c-0.2,0-0.7,0-1.4-0.1c-0.3,0-0.6-0.1-0.9-0.2c-0.2,0-0.4-0.1-0.6-0.1
				C39.5,93,39.2,93,39,92.9c-0.2-0.1-0.5-0.1-0.7-0.2c0,0-0.1,0-0.1,0c-0.1,0-0.1,0-0.2-0.1l0,0c-1.4-0.4-3-1-4.9-1.9l-0.3-2.9
				c0,0,0.1,0,0.3,0.1c0.7,0.3,2.8,1.2,5.1,1.9c0.9,0.3,1.7,0.5,2.6,0.7c0.3,0.1,0.6,0.1,0.8,0.2c0.2,0,0.4,0.1,0.5,0.1
				c0,0,0,0,0.1,0c0,0,0.1,0,0.1,0l0.5,2.6L42.8,93.5z"/>
		</g>
		<path class="st12" d="M47.7,73.8c-1.4,3.6-3,5.8-5.6,8.6c0.6,2.2,1.3,5.4,1.3,7c0.2,1.4,0.2,3.2,0.1,4c-0.2,0-0.5,0-0.7,0
			c0,0,0,0-0.2,0c-0.2,0-0.7,0-1.4-0.1c-0.3,0-0.6-0.1-0.9-0.2c-0.2,0-0.4-0.1-0.6-0.1C39.5,93,39.2,93,39,92.9
			c-0.2-0.1-0.5-0.1-0.7-0.2c0,0-0.1,0-0.1,0c-0.1,0-0.1,0-0.2-0.1l0,0l0-0.6l0.1-2.2l0,0l0,0l-8.4-16.9l-2-4.1l-1.1-2.2l0,0
			c1.1-2.6,2.5-5.6,3.3-5.7c1.5-0.2,6.8,8.4,6.8,8.4s10.6,0.6,10.7,1.6C47.7,71.8,47.9,72.5,47.7,73.8z"/>
	</g>
	<g>
		<g>
			<g>
				
					<radialGradient id="SVGID_8_" cx="427.9853" cy="108.2896" r="14.0655" gradientTransform="matrix(-0.9942 -0.1077 -0.1077 0.9942 527.9891 22.0527)" gradientUnits="userSpaceOnUse">
					<stop  offset="0" style="stop-color:#A157FF"/>
					<stop  offset="1" style="stop-color:#63399A"/>
				</radialGradient>
				<path class="st13" d="M81.1,82.4l0.3,0.5l-1.6,6.4c0,0.1,0,0.2-0.1,0.3c-0.2,1.4-0.2,3.2-0.1,4l0.7-0.2l4.8-1.3l5-1.4l9.6,5
					c0.3-0.6,0.7-2.7,0.8-4.4l0-0.1c0,0,0,0,0,0l-0.3-6.3l0.4-0.4l7.3-7.2c0.4-1.2,0.6-1.8,0.3-2.9l-10.5-1.1l-4.3-0.4l-7.1-0.8
					L75.8,71c-0.4,0.9-0.6,1.5-0.3,2.9L81.1,82.4z"/>
				
					<radialGradient id="SVGID_9_" cx="427.9807" cy="103.8508" r="15.8935" gradientTransform="matrix(-0.9942 -0.1077 -0.1077 0.9942 527.9891 22.0527)" gradientUnits="userSpaceOnUse">
					<stop  offset="0" style="stop-color:#A157FF"/>
					<stop  offset="1" style="stop-color:#63399A"/>
				</radialGradient>
				<path class="st14" d="M81.1,82.5c0.1,0.1,0.2,0.3,0.4,0.4l-1.3,7.8l-0.5,2.8c0.2,0,0.5,0,0.7,0c0,0,0,0,0.2,0
					c0.5,0,0.9-0.1,1.4-0.1c0.3,0,0.6-0.1,0.9-0.2c0.2,0,0.4-0.1,0.6-0.1c0.2-0.1,0.5-0.1,0.7-0.2c0.2-0.1,0.5-0.1,0.7-0.2
					c0,0,0.1,0,0.1,0c0.1,0,0.1-0.1,0.2-0.1c1.8-0.6,3.4-1.3,4.9-1.9c3,2.2,5.6,3.4,9.6,5l0.1-2.9l0.4-7.9c0.1-0.1,0.3-0.2,0.4-0.3
					c3.1-2.3,5.6-4.4,7.3-7.3l-1.3-0.5l-8.8-3.3l-0.1-0.2l-2.3-4.5l-2.5-5l-6.6,8.3l-0.1,0.1l-9.1,1.4l-1.6,0.2
					C77,77.5,78.5,79.6,81.1,82.5z"/>
				
					<radialGradient id="SVGID_10_" cx="419.1494" cy="93.5409" r="18.3102" gradientTransform="matrix(-0.9942 -0.1077 -0.1077 0.9942 527.9891 22.0527)" gradientUnits="userSpaceOnUse">
					<stop  offset="0" style="stop-color:#FF81FF"/>
					<stop  offset="1" style="stop-color:#9552FF"/>
				</radialGradient>
				<path class="st15" d="M77.1,73.6c1.7,2.7,4.7,6.4,4.7,6.4s-0.3,1-0.6,2.4c0,0,0,0.1,0,0.1c-0.6,2.2-1.3,5.4-1.3,7
					c0,0.6,0.1,1,0.3,1.1c0,0,0.1,0,0.1,0.1c0.2,0.1,0.5,0.1,0.9,0c0,0,0,0,0.1,0c0.2,0,0.3,0,0.5-0.1c0.3,0,0.5-0.1,0.8-0.2
					c0.8-0.2,1.7-0.5,2.6-0.7l0,0c2.2-0.7,4.4-1.6,5.1-1.8c0.2-0.1,0.3-0.1,0.3-0.1s7.6,5.1,9.4,5c0.1,0,0.1,0,0.2,0
					c0.2-0.1,0.4-0.7,0.5-1.6c0,0,0,0,0,0c0.2-1.7,0.2-4.5,0.1-6.6c0,0,0-0.1,0-0.1c0-1.4-0.1-2.5-0.1-2.5s3.8-2.9,6.1-5.2
					c1-1,1.7-1.9,1.6-2.4c-0.2-1.3-10.1-3.8-10.1-3.8s-0.7-1.9-1.6-4l0,0c-1.1-2.6-2.5-5.6-3.3-5.7c-1.5-0.2-6.8,8.4-6.8,8.4
					S75.9,69.9,75.8,71C75.8,71.4,76.3,72.4,77.1,73.6z"/>
			</g>
			
				<linearGradient id="SVGID_11_" gradientUnits="userSpaceOnUse" x1="427.9342" y1="115.8806" x2="437.3181" y2="115.8806" gradientTransform="matrix(-0.9942 -0.1077 -0.1077 0.9942 527.9891 22.0527)">
				<stop  offset="0" style="stop-color:#8B8BE0"/>
				<stop  offset="1" style="stop-color:#A177B7"/>
			</linearGradient>
			<path class="st16" d="M80.4,93.5c0,0,0,0,0.2,0c0.2,0,0.7,0,1.4-0.1c0.3,0,0.6-0.1,0.9-0.2c0.2,0,0.4-0.1,0.6-0.1
				c0.2-0.1,0.5-0.1,0.7-0.2c0.2-0.1,0.5-0.1,0.7-0.2c0,0,0.1,0,0.1,0c0.1,0,0.1,0,0.2-0.1l0,0c1.4-0.4,3-1,4.9-1.9l0.3-2.9
				c0,0-0.1,0-0.3,0.1c-0.7,0.3-2.8,1.2-5.1,1.9c-0.9,0.3-1.7,0.5-2.6,0.7c-0.3,0.1-0.6,0.1-0.8,0.2c-0.2,0-0.4,0.1-0.5,0.1
				c0,0,0,0-0.1,0c0,0-0.1,0-0.1,0l-0.5,2.6L80.4,93.5z"/>
		</g>
	</g>
	<g>
		<g>
			<path class="st17" d="M87.6,60.5c0.4,1.4,0.6,2.5,0,4.5l-10.7,13l1.5,10.2c0.2,2.3-0.1,5.5-0.6,6.7L62,88.8l-15.8,6.1
				c-0.4-1-0.7-4.3-0.5-7l1.5-9.9L36.6,64.9c-0.4-1.9-0.6-3,0-4.5L87.6,60.5z"/>
			<path class="st17" d="M71.2,60.7l16.3,4.3c-3,5.7-5.9,8.7-10.7,13L77.7,95c-6.3-0.6-11.3-3.9-15.7-6.2c-5,2.9-9.2,4.4-15.8,6.1
				l1-16.9c-4.8-4.4-8.5-8.1-10.7-13.1L53,60.7l9.2-14.2L71.2,60.7z"/>
			
				<linearGradient id="SVGID_12_" gradientUnits="userSpaceOnUse" x1="-0.6987" y1="164.9385" x2="50.3467" y2="164.9385" gradientTransform="matrix(0.8073 0.5901 -0.5901 0.8073 137.8924 -77.0753)">
				<stop  offset="0" style="stop-color:#971A8F"/>
				<stop  offset="0.4678" style="stop-color:#EF22AC"/>
				<stop  offset="1" style="stop-color:#FE4CCE"/>
			</linearGradient>
			<path class="st18" d="M71.2,56.2c0,0,16.3,2.7,16.3,4.3c0,2.3-10.7,13-10.7,13s2.8,15.9,0.9,16.9C75.7,91.6,62,84.3,62,84.3
				s-13.6,7.1-15.8,6.1c-1.5-0.7,1-16.9,1-16.9S35.9,62.7,36.6,60.4c0.6-2,16.4-4.2,16.4-4.2s7-14.2,9.2-14.2
				C64.5,41.9,71.2,56.2,71.2,56.2z"/>
			
				<radialGradient id="SVGID_13_" cx="20.8548" cy="150.2159" r="26.2815" gradientTransform="matrix(0.8073 0.5901 -0.5901 0.8073 137.8924 -77.0753)" gradientUnits="userSpaceOnUse">
				<stop  offset="0" style="stop-color:#FE117E"/>
				<stop  offset="1" style="stop-color:#B31A8F"/>
			</radialGradient>
			<path class="st19" d="M76.6,88.8c-2.5,0-11.1-4.3-14.2-6L62,82.6l-0.4,0.2c-3.1,1.6-11.7,5.9-14.2,5.9c0,0,0,0,0,0
				c-0.4-1.6,0.3-9,1.3-15.4l0.1-0.5l-0.3-0.3c-4.8-4.6-9.9-10.3-10-11.7c1-1,8.5-2.6,15-3.5l0.5-0.1l0.2-0.4
				c2.9-5.9,6.8-12.5,8.1-13.2c1.3,0.6,5.1,7.3,8,13.2l0.2,0.4l0.5,0.1c6.3,1.1,13.5,2.7,15,3.5c-0.6,1.6-5.5,7.2-10.1,11.7L75.3,73
				l0.1,0.5C76.6,79.9,77.3,87.5,76.6,88.8C76.7,88.8,76.7,88.8,76.6,88.8z"/>
		</g>
		<linearGradient id="SVGID_14_" gradientUnits="userSpaceOnUse" x1="62.0127" y1="89.563" x2="76.7011" y2="89.563">
			<stop  offset="0" style="stop-color:#8B8BE0"/>
			<stop  offset="1" style="stop-color:#A177B7"/>
		</linearGradient>
		<path class="st20" d="M62,88.8v-4.5c0,0,8.5,4.9,14.3,6.2l0.4,4.4C76.7,94.9,71.6,94.6,62,88.8z"/>
		<path class="st21" d="M41.5,59.7c0,0,15.5,11.2,35.2,11.1c0,0,8.9-6.6,10.2-10c0,0-3.4-2-16-3.7c0,0-3.9-9.8-8.8-14.4
			c0,0-4.7,5.3-7.6,14.1C54.5,56.8,46.9,57.3,41.5,59.7z"/>
	</g>
	<path class="st0" d="M28.2,21.3c1.4,2.7,24.4-3.6,26.8-8.1c2.3-4.5-9.3-8.2-15.7-6.9C32.9,7.5,26.4,17.7,28.2,21.3z"/>
	<g>
		<radialGradient id="SVGID_15_" cx="69.9259" cy="88.6996" r="22.6012" gradientUnits="userSpaceOnUse">
			<stop  offset="0" style="stop-color:#3996F7"/>
			<stop  offset="1" style="stop-color:#744FD8"/>
		</radialGradient>
		<path class="st22" d="M37.5,92.5c0,0,2.6-2.8,6.7-4.2c0,0,16.8-3.3,37.6,0c0,0,3.7,2,4.9,4.2H37.5z"/>
		<path class="st21" d="M69.2,87.1l1.3,3.6c0,0,6,0.2,9.7,0.8l-2.1-3.7C78.1,87.7,72.3,87.1,69.2,87.1z"/>
		<linearGradient id="SVGID_16_" gradientUnits="userSpaceOnUse" x1="62.0902" y1="116.0499" x2="62.0902" y2="90.2283">
			<stop  offset="0" style="stop-color:#1C257B"/>
			<stop  offset="1" style="stop-color:#4F3BBA"/>
		</linearGradient>
		<path class="st23" d="M41.1,112.7c0,0-3.6-6.5-3.6-20.2c0,0,21.8-5.1,49.2,0c0,0,0,13.7-5,23.6l-3.4-3.3L41.1,112.7z"/>
		<g>
			<polygon class="st21" points="47.4,96.7 47.8,99.2 74.8,99.2 75.3,96.5 			"/>
			<polygon class="st21" points="48,100.5 48.4,102.6 60.9,102.6 60.9,100.5 			"/>
			<polygon class="st21" points="48.4,103.9 48.8,106 66.6,106 66.6,103.9 			"/>
		</g>
		<linearGradient id="SVGID_17_" gradientUnits="userSpaceOnUse" x1="60.7582" y1="112.7282" x2="60.7582" y2="109.644">
			<stop  offset="0" style="stop-color:#7460E0"/>
			<stop  offset="1" style="stop-color:#FFFFFF"/>
		</linearGradient>
		<path class="st24" d="M78.3,112.7l3-3.1c0,0-19.8,4.1-41.1,1.1l0.9,2L78.3,112.7z"/>
	</g>
</g>
</svg>
