<svg xmlns="http://www.w3.org/2000/svg" xmlns:xlink="http://www.w3.org/1999/xlink" viewBox="0 0 120 120"><defs><style>.cls-1{isolation:isolate;}.cls-2{fill:#e1f3ff;}.cls-3{fill:url(#Áåçûìÿííûé_ãðàäèåíò_49);}.cls-4{fill:#bde0ff;}.cls-12,.cls-20,.cls-4{mix-blend-mode:soft-light;}.cls-5{fill:url(#Áåçûìÿííûé_ãðàäèåíò_49-2);}.cls-6{fill:url(#Áåçûìÿííûé_ãðàäèåíò_29);}.cls-7{fill:url(#Áåçûìÿííûé_ãðàäèåíò_49-3);}.cls-8{fill:url(#Áåçûìÿííûé_ãðàäèåíò_49-4);}.cls-9{fill:url(#Áåçûìÿííûé_ãðàäèåíò_146);}.cls-10{fill:url(#Áåçûìÿííûé_ãðàäèåíò_29-2);}.cls-11{fill:url(#Áåçûìÿííûé_ãðàäèåíò_142);}.cls-12,.cls-20{fill:#fff;}.cls-12{opacity:0.5;}.cls-13{fill:url(#Áåçûìÿííûé_ãðàäèåíò_29-3);}.cls-14{fill:#ff1d9c;}.cls-15{fill:#4f31e0;}.cls-16{fill:#6877ff;}.cls-17{fill:url(#Áåçûìÿííûé_ãðàäèåíò_322);}.cls-18{fill:url(#Áåçûìÿííûé_ãðàäèåíò_177);}.cls-19{fill:#bf006f;}</style><linearGradient id="Áåçûìÿííûé_ãðàäèåíò_49" x1="174.16" y1="134.77" x2="200.89" y2="134.77" gradientTransform="matrix(0.82, 0.58, -0.58, 0.82, 22.13, -127.03)" gradientUnits="userSpaceOnUse"><stop offset="0" stop-color="#1c257b"/><stop offset="1" stop-color="#6a2c9a"/></linearGradient><linearGradient id="Áåçûìÿííûé_ãðàäèåíò_49-2" x1="-1.94" y1="127.49" x2="-1.94" y2="82.98" gradientTransform="translate(1.07 -26.11) rotate(-13.8)" xlink:href="#Áåçûìÿííûé_ãðàäèåíò_49"/><radialGradient id="Áåçûìÿííûé_ãðàäèåíò_29" cx="447.94" cy="-180.12" r="10.99" gradientTransform="matrix(-0.92, 0.39, 0.39, 0.92, 580.13, 63.71)" gradientUnits="userSpaceOnUse"><stop offset="0" stop-color="#3996f7"/><stop offset="1" stop-color="#6840d5"/></radialGradient><linearGradient id="Áåçûìÿííûé_ãðàäèåíò_49-3" x1="30.09" y1="79.75" x2="90.39" y2="79.75" gradientTransform="matrix(1, 0, 0, 1, 0, 0)" xlink:href="#Áåçûìÿííûé_ãðàäèåíò_49"/><linearGradient id="Áåçûìÿííûé_ãðàäèåíò_49-4" x1="28.59" y1="85.26" x2="91.58" y2="85.26" gradientTransform="matrix(1, 0, 0, 1, 0, 0)" xlink:href="#Áåçûìÿííûé_ãðàäèåíò_49"/><radialGradient id="Áåçûìÿííûé_ãðàäèåíò_146" cx="73.46" cy="45.01" r="31.32" gradientUnits="userSpaceOnUse"><stop offset="0" stop-color="#39aef7"/><stop offset="1" stop-color="#6840d5"/></radialGradient><radialGradient id="Áåçûìÿííûé_ãðàäèåíò_29-2" cx="62.54" cy="47.23" r="44.7" gradientTransform="matrix(1, 0, 0, 1, 0, 0)" xlink:href="#Áåçûìÿííûé_ãðàäèåíò_29"/><linearGradient id="Áåçûìÿííûé_ãðàäèåíò_142" x1="60.24" y1="93.99" x2="60.24" y2="52.08" gradientUnits="userSpaceOnUse"><stop offset="0" stop-color="#60b3f7"/><stop offset="1" stop-color="#364ac2"/></linearGradient><radialGradient id="Áåçûìÿííûé_ãðàäèåíò_29-3" cx="66.75" cy="97.01" r="11.27" gradientTransform="matrix(1, 0, 0, 1, 0, 0)" xlink:href="#Áåçûìÿííûé_ãðàäèåíò_29"/><linearGradient id="Áåçûìÿííûé_ãðàäèåíò_322" x1="65.55" y1="85.29" x2="65.55" y2="46.88" gradientUnits="userSpaceOnUse"><stop offset="0" stop-color="#b31a8f"/><stop offset="1" stop-color="#fe117e"/></linearGradient><linearGradient id="Áåçûìÿííûé_ãðàäèåíò_177" x1="65.55" y1="90.72" x2="65.55" y2="52.3" gradientUnits="userSpaceOnUse"><stop offset="0" stop-color="#63004a"/><stop offset="1" stop-color="#ba0065"/></linearGradient></defs><title>2</title><g class="cls-1"><g id="Layer_1" data-name="Layer 1"><path class="cls-2" d="M15.32,53.7c-1-20.57,28-46.39,52.91-42.11,26.33,4.52,49.41,61.69,24.46,80.94S16.27,74.56,15.32,53.7Z"/><path class="cls-3" d="M77.92,95.36s14.7-19.22,38.46-8.15c0,0-11.21,20.43-36,10.08Z"/><path class="cls-4" d="M116.38,87.21,77.92,95.36,81.59,97S102.54,105.83,116.38,87.21Z"/><path class="cls-5" d="M37.66,96.18s-25.38-6.33-34-37.46c0,0,22.84-5.88,39.79,29.32Z"/><path class="cls-4" d="M5.57,60.24,39.62,92.31l-6.4.85S10.9,85.45,5.57,60.24Z"/><path class="cls-6" d="M84.06,88s5.78-19.66,23.15-17.6C107.21,70.42,105.11,90.46,84.06,88Z"/><path class="cls-4" d="M107.21,70.42,84.85,86.72S101.36,91.57,107.21,70.42Z"/><path class="cls-2" d="M83.64,12c-2.2,2.32,12.06,22.71,17.3,23.43s4.8-12,1.32-17.79S86.48,9,83.64,12Z"/><path class="cls-7" d="M60.24,49.6A30.15,30.15,0,1,0,90.39,79.75,30.15,30.15,0,0,0,60.24,49.6Zm0,49.31A19.16,19.16,0,1,1,79.39,79.75,19.16,19.16,0,0,1,60.24,98.91Z"/><path class="cls-8" d="M30.78,62.37s-5.53,13.37,1,27.27c0,0,10.68,19.79,28.49,20.26S88.72,89.64,88.72,89.64,95,74.16,89,60.6l-8.85.15s4.9,40.17-19.9,38.16S37.68,69,37.68,69Z"/><path class="cls-9" d="M60.24,41.71A31.33,31.33,0,1,0,91.56,73,31.32,31.32,0,0,0,60.24,41.71Zm0,52.28A21,21,0,1,1,81.19,73,21,21,0,0,1,60.24,94Z"/><path class="cls-10" d="M90.67,65.63A31.32,31.32,0,0,0,28.92,73a31,31,0,0,0,1.55,9.73,31.36,31.36,0,0,0,16.42,18.59,30.82,30.82,0,0,0,13.35,3A31.36,31.36,0,0,0,91.56,73,31,31,0,0,0,90.67,65.63ZM60.24,94a20.59,20.59,0,0,1-3.88-.36A21,21,0,0,1,39.43,75.5,22.29,22.29,0,0,1,39.28,73a21,21,0,0,1,41.91,0c0,.12,0,.22,0,.34A21,21,0,0,1,60.24,94Z"/><path class="cls-11" d="M60.24,52.08A21,21,0,1,0,81.19,73,21,21,0,0,0,60.24,52.08Zm0,40.86A19.91,19.91,0,1,1,80.13,73,19.91,19.91,0,0,1,60.24,92.94Z"/><path class="cls-12" d="M56.36,93.63l-9.47,7.72A31.36,31.36,0,0,1,30.47,82.76l9-7.26A21,21,0,0,0,56.36,93.63Z"/><path class="cls-12" d="M81.18,73.37c0-.12,0-.22,0-.34A21,21,0,0,0,67,53.2L75.94,46A31.37,31.37,0,0,1,90.67,65.63Z"/><path class="cls-13" d="M50,102.64S64.76,107,81.19,96.31C81.19,96.31,70.37,108.56,50,102.64Z"/><path class="cls-12" d="M46.89,101.35l1.66,6.2S36.27,103.64,30.9,87.64l-.43-4.88A32.34,32.34,0,0,0,46.89,101.35Z"/><polygon class="cls-14" points="102.2 59.83 108.74 49.78 112.23 52.16 105.27 61.58 102.2 59.83"/><polygon class="cls-14" points="26.52 41.96 36.74 34 39.23 37.44 29.86 44.85 26.52 41.96"/><polygon class="cls-15" points="20.73 92.51 13.27 96.28 11.39 92.52 19 88.07 20.73 92.51"/><polygon class="cls-16" points="70.55 34.33 75.91 40.21 78.01 37.78 72.95 32.22 70.55 34.33"/><path class="cls-17" d="M37.91,68.26,44.72,56.5,59.48,68.25s16.74-17.06,30-21.37L93.2,62S76.46,66.08,60.77,85.29Z"/><path class="cls-18" d="M37.91,73.69l6.81-11.76L59.48,73.67s16.74-17.06,30-21.37L93.2,67.44S76.46,71.51,60.77,90.72Z"/><polygon class="cls-19" points="89.49 46.88 89.49 52.3 93.2 67.44 93.2 60.6 89.49 46.88"/><polygon class="cls-19" points="44.72 56.5 44.72 61.93 37.91 73.69 37.91 68.26 44.72 56.5"/><path class="cls-20" d="M89.49,46.87V52.3a55.71,55.71,0,0,0-11.82,6.24A130.84,130.84,0,0,0,59.48,73.67V68.25A129.73,129.73,0,0,1,72.82,56.5a84.37,84.37,0,0,1,9.65-6.38A38.66,38.66,0,0,1,89.49,46.87Z"/><path class="cls-20" d="M84.06,54.63l-6.39,3.91-2.1-4a63.24,63.24,0,0,1,6.9-4.39Z"/></g></g></svg>