<?xml version="1.0" encoding="utf-8"?>
<!-- Generator: Adobe Illustrator 24.0.0, SVG Export Plug-In . SVG Version: 6.00 Build 0)  -->
<svg version="1.1" id="Layer_1" xmlns="http://www.w3.org/2000/svg" xmlns:xlink="http://www.w3.org/1999/xlink" x="0px" y="0px"
	 viewBox="0 0 113.3 110.2" style="enable-background:new 0 0 113.3 110.2;" xml:space="preserve">
<style type="text/css">
	.st0{fill:#110239;}
	.st1{fill:#FEFEFE;}
	.st2{fill:#9C9EB9;}
	.st3{fill:#D0D1DE;}
	.st4{fill:#01C7E2;}
	.st5{fill:#FD425F;}
	.st6{fill:#FFFFFF;}
	.st7{fill:#F88667;}
	.st8{fill:#E5E6ED;}
	.st9{fill:#ABADC4;}
</style>
<title>3</title>
<g>
	<g>
		<g>
			<rect x="17.6" y="76.7" class="st0" width="78.6" height="11.5"/>
			<path class="st0" d="M98.8,84.5H15c-2.7,0-4.8-2.2-4.8-4.8v-53c0-2.7,2.2-4.8,4.8-4.8h83.9c2.7,0,4.8,2.2,4.8,4.8v53
				C103.6,82.4,101.5,84.5,98.8,84.5z"/>
			<rect x="14.4" y="26" class="st1" width="84.9" height="53.7"/>
			<g>
				<g>
					<path class="st0" d="M1,101.3v1.7c0,0.9,1,1.7,2.3,1.7h107.1c1.3,0,2.3-0.8,2.3-1.7v-1.7H1z"/>
					<path class="st0" d="M56.9,88.1l-45.9,0c-0.2,0.2-7.4,6.6-9.6,11.4c-0.9,2-0.3,3.1,1.4,3.1l54,0h54c1.8,0,2.4-1.1,1.4-3.1
						c-2.2-4.8-9.4-11.2-9.6-11.4H56.9z"/>
					<polygon class="st2" points="106.9,100.1 9.2,100.1 16,90.1 100.2,90.1 					"/>
					<g>
						<g>
							<g>
								<g>
									<path class="st3" d="M105.8,98.4l-0.2-0.3H99l-1.2-2.4h6.1l-0.2-0.3h-6l-1.2-2.4h5.6l-0.2-0.3h-5.6l-1.2-2.5h-0.6l1.2,2.5
										h-7l-1-2.5h-0.6l1,2.5h-7l-0.7-2.5h-0.6l0.7,2.5h-7l-0.5-2.5h-0.6l0.5,2.5h-7l-0.2-2.5h-0.6l0.2,2.5h-6.6v-2.5h-0.6v2.5
										h-6.9l0.2-2.5H51l-0.2,2.5h-7l0.5-2.5h-0.6l-0.5,2.5h-7l0.7-2.5h-0.6l-0.7,2.5h-7l1-2.5H29l-1,2.5h-7l1.2-2.5h-0.6
										l-1.2,2.5h-6.2l-0.2,0.3h6.2l-1.2,2.4h-6.6l-0.2,0.3H19l-1.2,2.4h-7.1l-0.2,0.3h7.2l-0.9,1.8h0.6l0.9-1.8h7.5l-0.7,1.8h0.6
										l0.7-1.8h7.5l-0.5,1.8H34l0.5-1.8h7.5l-0.3,1.8h0.6l0.3-1.8h7.5l-0.2,1.8h0.6l0.1-1.8h7.4v1.8h0.6v-1.8h7.1l0.1,1.8h0.6
										l-0.2-1.8h7.5l0.3,1.8h0.6l-0.3-1.8h7.5l0.5,1.8h0.6l-0.5-1.8h7.5l0.7,1.8h0.6L91,98.4h7.5l0.9,1.8h0.6l-0.9-1.8H105.8z
										 M28.5,92.9h7l-0.7,2.4h-7.2L28.5,92.9z M20.9,92.9h7l-1,2.4h-7.2L20.9,92.9z M25.9,98.1h-7.5l1.2-2.4h7.3L25.9,98.1z
										 M34,98.1h-7.5l0.9-2.4h7.3L34,98.1z M42.1,98.1h-7.5l0.7-2.4h7.3L42.1,98.1z M42.7,95.3h-7.2l0.7-2.4h7L42.7,95.3z
										 M50.2,98.1h-7.5l0.5-2.4h7.3L50.2,98.1z M50.5,95.3h-7.2l0.5-2.4h7L50.5,95.3z M58.2,98.1h-7.3l0.2-2.4h7.1V98.1z
										 M58.2,95.3h-7.1l0.2-2.4h6.9V95.3z M58.8,92.9h6.7l0.2,2.4h-6.9V92.9z M58.8,98.1v-2.4h6.9l0.2,2.4H58.8z M95.9,92.9
										l1.2,2.4h-7.2l-1-2.4H95.9z M88.3,92.9l0.9,2.4H82l-0.7-2.4H88.3z M66.1,92.9h7l0.5,2.4h-7.2L66.1,92.9z M66.5,98.1
										l-0.2-2.4h7.3l0.5,2.4H66.5z M73.7,92.9h7l0.7,2.4h-7.2L73.7,92.9z M74.7,98.1l-0.5-2.4h7.3l0.7,2.4H74.7z M82.8,98.1
										l-0.7-2.4h7.3l0.9,2.4H82.8z M90.9,98.1l-1-2.4h7.3l1.2,2.4H90.9z"/>
								</g>
							</g>
						</g>
					</g>
				</g>
				<path class="st0" d="M56.9,102.6h-4.7c0,0,0,0.4,0.2,0.7c0.1,0.1,0.2,0.1,0.4,0.1h4.1H61c0.1,0,0.3,0,0.4-0.1
					c0.2-0.2,0.2-0.6,0.2-0.7H56.9z"/>
			</g>
		</g>
		<rect x="14.4" y="26" class="st1" width="84.9" height="53.7"/>
		<polygon class="st4" points="58.5,53.4 50.8,56.8 41.1,47.2 14.4,67.5 14.4,79.7 99.3,79.7 99.3,16.6 63.9,59.5 		"/>
		<g>
			<rect x="31.2" y="63.4" class="st1" width="2.7" height="2.1"/>
			<rect x="35" y="63.4" class="st1" width="2.7" height="2.1"/>
			<rect x="38.8" y="63.4" class="st5" width="2.7" height="2.1"/>
			<rect x="42.6" y="63.4" class="st1" width="2.7" height="2.1"/>
			<rect x="46.5" y="63.4" class="st1" width="2.7" height="2.1"/>
			<rect x="50.3" y="63.4" class="st5" width="2.7" height="2.1"/>
			<rect x="31.2" y="66.9" class="st1" width="2.7" height="2.1"/>
			<rect x="35" y="66.9" class="st1" width="2.7" height="2.1"/>
			<rect x="38.8" y="66.9" class="st1" width="2.7" height="2.1"/>
			<rect x="42.6" y="66.9" class="st1" width="2.7" height="2.1"/>
			<rect x="46.5" y="66.9" class="st5" width="2.7" height="2.1"/>
			<rect x="50.3" y="66.9" class="st1" width="2.7" height="2.1"/>
			<rect x="31.2" y="70.4" class="st1" width="2.7" height="2.1"/>
			<rect x="35" y="70.4" class="st5" width="2.7" height="2.1"/>
			<rect x="38.8" y="70.4" class="st1" width="2.7" height="2.1"/>
			<rect x="42.6" y="70.4" class="st1" width="2.7" height="2.1"/>
			<rect x="46.5" y="70.4" class="st1" width="2.7" height="2.1"/>
			<rect x="50.3" y="70.4" class="st1" width="2.7" height="2.1"/>
			<rect x="31.2" y="73.9" class="st1" width="2.7" height="2.1"/>
			<rect x="35" y="73.9" class="st1" width="2.7" height="2.1"/>
			<rect x="38.8" y="73.9" class="st5" width="2.7" height="2.1"/>
			<rect x="42.6" y="73.9" class="st1" width="2.7" height="2.1"/>
		</g>
		<g>
			<g>
				<polygon class="st6" points="59.4,57.5 59.1,57.3 58.8,57.4 58.5,56.9 59.2,56.6 59.8,57.1 				"/>
			</g>
			<g>
				<path class="st6" d="M53.2,59.8L53,59.2l0.9-0.4l0.2,0.5L53.2,59.8z M55.1,59l-0.2-0.5l0.9-0.4l0.2,0.5L55.1,59z M56.9,58.2
					l-0.2-0.5l0.9-0.4l0.2,0.5L56.9,58.2z"/>
			</g>
			<g>
				<polygon class="st6" points="51.6,60.4 51,59.9 51.4,59.5 51.7,59.8 52.1,59.6 52.3,60.1 				"/>
			</g>
			<g>
				<path class="st6" d="M50.2,59.2l-0.8-0.7l0.4-0.4l0.8,0.7L50.2,59.2z M48.6,57.8l-0.8-0.7l0.4-0.4l0.8,0.7L48.6,57.8z
					 M46.9,56.3l-0.8-0.7l0.4-0.4l0.8,0.7L46.9,56.3z M45.3,54.9l-0.8-0.7l0.4-0.4l0.8,0.7L45.3,54.9z M43.6,53.5l-0.8-0.7l0.4-0.4
					L44,53L43.6,53.5z"/>
			</g>
			<g>
				<polygon class="st6" points="42,52 41.7,51.8 41.5,52 41.1,51.5 41.8,51.1 42.4,51.6 				"/>
			</g>
			<g>
				<path class="st6" d="M16.4,69.6L16,69.1l1-0.7l0.3,0.5L16.4,69.6z M18.3,68.3L18,67.8l1-0.7l0.3,0.5L18.3,68.3z M20.3,66.9
					L20,66.4l1-0.7l0.3,0.5L20.3,66.9z M22.3,65.5L21.9,65l1-0.7l0.3,0.5L22.3,65.5z M24.2,64.1l-0.3-0.5l1-0.7l0.3,0.5L24.2,64.1z
					 M26.2,62.8l-0.3-0.5l1-0.7l0.3,0.5L26.2,62.8z M28.1,61.4l-0.3-0.5l1-0.7l0.3,0.5L28.1,61.4z M30,60l-0.3-0.5l1-0.7l0.3,0.5
					L30,60z M31.9,58.7l-0.3-0.5l1-0.7l0.3,0.5L31.9,58.7z M33.9,57.3l-0.3-0.5l1-0.7l0.3,0.5L33.9,57.3z M35.8,56l-0.3-0.5l1-0.7
					l0.3,0.5L35.8,56z M37.7,54.7l-0.3-0.5l0.9-0.7l0.3,0.5L37.7,54.7z M39.6,53.3l-0.3-0.5l0.9-0.7l0.3,0.5L39.6,53.3z"/>
			</g>
			<g>
				<path class="st6" d="M66,61.3l-0.4-0.4l0.7-0.8l0.4,0.4L66,61.3z M67.4,59.6L67,59.2l0.7-0.8l0.4,0.4L67.4,59.6z M68.9,57.9
					l-0.4-0.4l0.7-0.8l0.4,0.4L68.9,57.9z M70.3,56.2l-0.4-0.4l0.7-0.8l0.4,0.4L70.3,56.2z M71.8,54.5l-0.4-0.4l0.7-0.8l0.4,0.4
					L71.8,54.5z M73.2,52.9l-0.4-0.4l0.7-0.8l0.4,0.4L73.2,52.9z M74.6,51.2l-0.4-0.4l0.7-0.8l0.4,0.4L74.6,51.2z M76,49.5l-0.4-0.4
					l0.7-0.8l0.4,0.4L76,49.5z M77.5,47.9L77,47.5l0.7-0.8l0.4,0.4L77.5,47.9z M78.9,46.2l-0.4-0.4l0.7-0.8l0.4,0.4L78.9,46.2z
					 M80.3,44.6l-0.4-0.4l0.7-0.8l0.4,0.4L80.3,44.6z M81.7,43l-0.4-0.4l0.7-0.8l0.4,0.4L81.7,43z M83.1,41.3L82.7,41l0.7-0.8
					l0.4,0.4L83.1,41.3z M84.5,39.7l-0.4-0.4l0.7-0.8l0.4,0.4L84.5,39.7z M85.9,38.1l-0.4-0.4l0.7-0.8l0.4,0.4L85.9,38.1z
					 M87.3,36.5l-0.4-0.4l0.7-0.8l0.4,0.4L87.3,36.5z M88.6,34.9l-0.4-0.4l0.7-0.8l0.4,0.4L88.6,34.9z M90,33.3l-0.4-0.4l0.7-0.8
					l0.4,0.4L90,33.3z M91.4,31.7L91,31.3l0.7-0.8l0.4,0.4L91.4,31.7z M92.7,30.1l-0.4-0.4l0.7-0.8l0.4,0.4L92.7,30.1z M94.1,28.5
					l-0.4-0.4l0.7-0.8l0.4,0.4L94.1,28.5z M95.5,26.9l-0.4-0.4l0.7-0.8l0.4,0.4L95.5,26.9z M96.7,25.4L96.3,25l0.7-0.8l0.4,0.4
					L96.7,25.4z M98,23.9l-0.4-0.4l0.7-0.8l0.4,0.4L98,23.9z"/>
			</g>
			<g>
				<polygon class="st6" points="64.7,62.8 64.1,62.2 64.5,61.8 64.6,61.9 64.8,61.7 65.2,62.1 				"/>
			</g>
			<g>
				<path class="st6" d="M63.1,61.2l-0.9-0.9l0.4-0.4l0.9,0.9L63.1,61.2z M61.3,59.4l-0.9-0.9l0.4-0.4l0.9,0.9L61.3,59.4z"/>
			</g>
		</g>
		<g>
			<g>
				<path class="st5" d="M97.1,10.4L64,52.3l-5.4-6.5l-7.8,3.7l-10-10.6L14.4,60.4V63l26.3-21.4l9.8,10.5l7.8-3.7l5.7,6.8l34.3-43.5
					C97.9,11.3,97.5,10.8,97.1,10.4z"/>
			</g>
			<polygon class="st5" points="102.2,6.6 94.4,9.2 99.6,14.4 			"/>
		</g>
		<g>
			<path class="st5" d="M24.7,32.9c1.8,0.1,3.4,0.9,3.4,2.6l-2.9,0c0-0.7-0.7-0.8-1.1-0.8c-0.3,0-1.1,0-1.1,0.5
				c0,1.2,5.4-0.1,5.4,3.3c0,2-1.6,2.8-3.6,3l0.1,2.2l-1.8,0l0.1-2.2c-1.8-0.2-3.5-1-3.5-2.9l2.9,0l0,0.1c0,0.8,0.9,1,1.4,1
				c0.4,0,1.3,0,1.3-0.6c0-1.3-5.4-0.1-5.4-3.4c0-1.9,1.5-2.6,3.3-2.8L23,30.7l1.8,0L24.7,32.9z"/>
		</g>
	</g>
	<g>
		<path class="st0" d="M69.5,92c0,0,0.1,2.4-0.2,2.7c-0.3,0.4-5.1,0.9-5.5,0.5c-0.4-0.4-0.3-1.2,0.7-1.5c1.1-0.4,1.6-0.1,2.3-0.5
			c0.7-0.3,0.4-1.4,0.4-1.4L69.5,92z"/>
		<path class="st0" d="M85,92c0,0-0.1,2.4,0.2,2.7c0.3,0.4,5.1,0.9,5.5,0.5c0.4-0.4,0.3-1.2-0.7-1.5c-1.1-0.4-1.6-0.1-2.3-0.5
			c-0.7-0.3-0.4-1.4-0.4-1.4L85,92z"/>
		<path class="st5" d="M85.3,78.1C84.8,75.5,82,68.4,81,66c-0.4-0.1-0.9-0.3-1.3-0.4c0.1-0.6,0.2-1,0.3-1.4
			c-0.8,0.2-1.7,0.3-2.5,0.6c-0.1,0-0.2,0.1-0.4,0.1c-0.1,0-0.3-0.1-0.4-0.1c-0.9-0.3-1.7-0.4-2.5-0.6c0.1,0.4,0.2,0.9,0.3,1.4
			c-0.5,0.1-0.9,0.3-1.3,0.4c-1,2.5-3.8,9.6-4.3,12.2c-0.7,3.6-1.9,14.3-1.9,14.3l3,0.4c0,0,3.1-14.3,3.5-15.1
			c0.8-1.4,1.6-2.7,2.3-3.8c0.6-0.9,2-0.9,2.6,0c0.7,1.1,1.6,2.4,2.3,3.8c0.4,0.8,3.5,15.1,3.5,15.1l3-0.4
			C87.2,92.4,86,81.8,85.3,78.1z"/>
		<path class="st7" d="M86.1,33.8c-0.2-1.2-0.4-1.4-0.8-1.7c-0.2-0.1-0.4-0.2-0.5-0.4c-0.1-0.2-0.4-0.3-0.6-0.5
			c-0.2-0.1-0.4-0.3-0.5-0.6c-0.1-0.3,0.3-0.2,0.5-0.1c0.3,0.1,0.8,0.9,1.1,0.7c0.3-0.1-0.4-1-0.5-1.2c-0.3-0.4-0.7-0.4-1.1-0.5
			c-0.3-0.1-0.3-0.2-0.1-0.4c0.2-0.1,0.5,0,0.7,0c0.4,0.1,0.9,0.4,1.2,0.7c-0.2-0.3-0.7-0.6-1-0.8c-0.2-0.1-1.2-0.4-1.1-0.8
			c0.3-0.7,2.3,0.6,2.5,1c-0.3-0.4-0.6-0.6-1-0.9c-0.2-0.1-0.7-0.5-0.3-0.7c0.6-0.3,1.4,0.9,1.8,1.4c-0.2-0.4-0.4-0.6-0.7-1
			c-0.3-0.4,0.1-0.5,0.5-0.2c0.2,0.2,0.5,0.5,0.6,0.6c0.7,0.9,0.7,1.5,0.8,2.5c0,0.4,0.1,1,0.2,2.1C87.9,34,86.7,33.7,86.1,33.8z"/>
		<path class="st7" d="M56.5,51c-1.2-0.4-1.3-0.9-1.5-1.4c-0.1-0.2-0.1-0.4-0.3-0.6c-0.2-0.2-0.3-0.4-0.4-0.7
			c-0.1-0.2-0.2-0.5-0.4-0.6c-0.3-0.2-0.3,0.2-0.2,0.5c0,0.3,0.7,0.9,0.5,1.2c-0.2,0.3-0.9-0.6-1-0.8c-0.3-0.4-0.2-0.8-0.3-1.2
			c-0.1-0.3-0.2-0.4-0.4-0.1c-0.2,0.2-0.1,0.4-0.1,0.7c0,0.4,0.2,0.9,0.5,1.3c-0.2-0.3-0.5-0.8-0.6-1.2c-0.1-0.2-0.2-1.3-0.5-1.2
			c-0.8,0.1,0.1,2.4,0.5,2.6c-0.3-0.3-0.5-0.7-0.6-1.1c-0.1-0.2-0.3-0.8-0.6-0.4c-0.4,0.6,0.6,1.6,1,2.1c-0.3-0.3-0.5-0.6-0.8-0.9
			c-0.3-0.4-0.5,0-0.3,0.5c0.1,0.2,0.4,0.6,0.5,0.7c0.7,0.9,1.3,1,2.3,1.4c0.4,0.1,0.7,0.2,1.9,0.7C56.2,52.7,56.3,51.5,56.5,51z"/>
		<path class="st7" d="M78.5,48.7c-0.7,0.1-1.4,0.2-2,0.1c-0.2,0-0.5-0.1-0.7-0.1c0,0.8,0,2.8-0.6,3.5c0,0,0.2,0.9,1.9,1
			c1.7,0,1.9-1,1.9-1S78.5,50.8,78.5,48.7z"/>
		<path class="st8" d="M85,53.4c-0.5-0.6-2.7-1.9-4.1-2.1c-2.4-0.4-4.9-0.4-7.3,0c-1.5,0.2-3,0.6-3.4,1.2c-0.6,0.7,1.2,4.9,1.4,8.7
			c0.2,3.2,0.7,5.6,0.7,5.6c1,1.7,8.4,1.8,9.3,0c0,0,0.2-2.7,0.7-5.6C83,57.3,85.6,54.2,85,53.4z"/>
		<path class="st9" d="M73.1,60.3c0-1,0.4-2.9,0-3.8c-0.5-1.3-1.8-1.8-2.9-2.5c0.3,1.7,1.2,4.5,1.4,7.1c0.2,3.2,0.7,5.6,0.7,5.6
			c0.2,0.3,0.6,0.6,1.1,0.8C72.4,65.5,73,62.3,73.1,60.3z"/>
		<path class="st7" d="M80.8,44.1c0,0-3.5-2.1-4-1.6c-0.5,0.5-1.4,2.2-1.8,2.5c-0.4,0.3-1,0.5-1,0.8c0.1,0.3,0.3,0.3,0.2,0.6
			c0,0.3-0.7,1.8-0.3,2.3c0.4,0.4,2.9,1.4,4.5,0.4C79.9,48.1,82.5,45,80.8,44.1z"/>
		<path class="st0" d="M81.6,44.9l-3,0c0,0-0.6,1.5-1.8,2.4c0,0,0.1,0.4,0.4,0.3c0.3-0.1,0.5-0.1,0.7-0.5s0.9-1.2,1.3-0.4
			c0.4,0.8-0.5,1-0.9,1c0,0-1.3,1.6-0.3,1.9c0,0,1.2-0.2,2.9-2.1C82.7,45.8,82.4,44.7,81.6,44.9z"/>
		<path class="st0" d="M76,41.4c0,0-1.4,0.9,0.2,2.6c1.7,1.8,5.6,0.8,5.6,0.8s0.4-1.1-1-2.3c-1.1-0.9-2.2-1.3-3.2-0.9
			C76.1,42.3,76,41.4,76,41.4z"/>
		<path class="st8" d="M56.1,50.5l-1.3,2c0,0,3.2,3.1,7,5.6c2.2,1.4,9.6-0.9,10.7-1.2c1.6-0.5,2.9-4,0.1-5.2c-1.6-0.8-8,4.1-9.6,3.3
			C61.1,53.9,56.1,50.5,56.1,50.5z"/>
		<path class="st8" d="M85.6,33.2l2.5-0.4c0,0,1.6,7.2,1.6,9.8c-0.1,2.6-4.2,12-5.2,12.8c-1.1,0.9-4.3-1.7-2-4.4
			c2.3-2.8,3.8-8.5,3.8-8.7C86.3,42.1,85.6,33.2,85.6,33.2z"/>
	</g>
	<rect x="33.9" y="29.1" class="st3" width="20.1" height="1.8"/>
	<rect x="33.9" y="32" class="st3" width="20.1" height="1.8"/>
	<rect x="33.9" y="34.9" class="st3" width="15.2" height="1.8"/>
</g>
</svg>
