<svg xmlns="http://www.w3.org/2000/svg" xmlns:xlink="http://www.w3.org/1999/xlink" viewBox="0 0 113.28 110.2"><defs><style>.cls-1{isolation:isolate;}.cls-2{fill:#e1f3ff;}.cls-3{fill:#ff1d9c;}.cls-4{fill:#a74aff;}.cls-5{fill:#4f31e0;}.cls-6{fill:#6877ff;}.cls-7{fill:url(#Áåçûìÿííûé_ãðàäèåíò_373);}.cls-8{fill:url(#Áåçûìÿííûé_ãðàäèåíò_49);}.cls-9{fill:url(#Áåçûìÿííûé_ãðàäèåíò_29);}.cls-10{fill:url(#Áåçûìÿííûé_ãðàäèåíò_49-2);}.cls-11{fill:#bde0ff;}.cls-11,.cls-14,.cls-30,.cls-31,.cls-32{mix-blend-mode:soft-light;}.cls-12{fill:url(#Áåçûìÿííûé_ãðàäèåíò_29-2);}.cls-13{fill:url(#Áåçûìÿííûé_ãðàäèåíò_26);}.cls-14,.cls-24,.cls-25{fill:#fff;}.cls-15{fill:url(#Áåçûìÿííûé_ãðàäèåíò_29-3);}.cls-16{fill:url(#Áåçûìÿííûé_ãðàäèåíò_6);}.cls-17{fill:url(#Áåçûìÿííûé_ãðàäèåíò_30);}.cls-18{fill:url(#Áåçûìÿííûé_ãðàäèåíò_373-2);}.cls-19{fill:url(#Áåçûìÿííûé_ãðàäèåíò_373-3);}.cls-20{fill:url(#Áåçûìÿííûé_ãðàäèåíò_373-4);}.cls-21{fill:url(#Áåçûìÿííûé_ãðàäèåíò_373-5);}.cls-22{fill:url(#Áåçûìÿííûé_ãðàäèåíò_373-6);}.cls-23{fill:url(#Áåçûìÿííûé_ãðàäèåíò_373-7);}.cls-24{opacity:0.73;}.cls-26{fill:url(#Áåçûìÿííûé_ãðàäèåíò_90);}.cls-27{fill:url(#Áåçûìÿííûé_ãðàäèåíò_6-2);}.cls-28{opacity:0.4;mix-blend-mode:multiply;fill:url(#Áåçûìÿííûé_ãðàäèåíò_55);}.cls-29{fill:url(#Áåçûìÿííûé_ãðàäèåíò_45);}.cls-30{fill:url(#Áåçûìÿííûé_ãðàäèåíò_264);}.cls-31{fill:url(#Áåçûìÿííûé_ãðàäèåíò_264-2);}.cls-32{fill:url(#Áåçûìÿííûé_ãðàäèåíò_264-3);}.cls-33{fill:#a181c9;}.cls-34{mix-blend-mode:screen;fill:url(#Áåçûìÿííûé_ãðàäèåíò_60);}</style><linearGradient id="Áåçûìÿííûé_ãðàäèåíò_373" x1="67.7" y1="90.74" x2="67.7" y2="88.33" gradientUnits="userSpaceOnUse"><stop offset="0" stop-color="#1c257b"/><stop offset="1" stop-color="#482c83"/></linearGradient><linearGradient id="Áåçûìÿííûé_ãðàäèåíò_49" x1="78.32" y1="100.82" x2="78.32" y2="73.99" gradientUnits="userSpaceOnUse"><stop offset="0" stop-color="#1c257b"/><stop offset="1" stop-color="#6a2c9a"/></linearGradient><radialGradient id="Áåçûìÿííûé_ãðàäèåíò_29" cx="99.9" cy="67.16" r="22.11" gradientUnits="userSpaceOnUse"><stop offset="0" stop-color="#3996f7"/><stop offset="1" stop-color="#6840d5"/></radialGradient><linearGradient id="Áåçûìÿííûé_ãðàäèåíò_49-2" x1="34.52" y1="98.87" x2="34.52" y2="61.24" xlink:href="#Áåçûìÿííûé_ãðàäèåíò_49"/><radialGradient id="Áåçûìÿííûé_ãðàäèåíò_29-2" cx="29.6" cy="89.58" r="10.03" xlink:href="#Áåçûìÿííûé_ãðàäèåíò_29"/><linearGradient id="Áåçûìÿííûé_ãðàäèåíò_26" x1="67.7" y1="100.93" x2="67.7" y2="38.72" gradientTransform="translate(118.99 -12.81) rotate(75.94)" gradientUnits="userSpaceOnUse"><stop offset="0" stop-color="#4c25a6"/><stop offset="0.6" stop-color="#457ae2"/><stop offset="1" stop-color="#6dd9f7"/></linearGradient><radialGradient id="Áåçûìÿííûé_ãðàäèåíò_29-3" cx="69.87" cy="44.29" r="42.21" gradientTransform="translate(118.68 -13.18) rotate(76.52)" xlink:href="#Áåçûìÿííûé_ãðàäèåíò_29"/><linearGradient id="Áåçûìÿííûé_ãðàäèåíò_6" x1="67.7" y1="91.42" x2="67.7" y2="45.9" gradientTransform="translate(118.75 -13.14) rotate(76.56)" gradientUnits="userSpaceOnUse"><stop offset="0" stop-color="#ddcdff"/><stop offset="1" stop-color="#9f9cff"/></linearGradient><linearGradient id="Áåçûìÿííûé_ãðàäèåíò_30" x1="67.7" y1="90.53" x2="67.7" y2="49.55" gradientTransform="translate(120.11 -12.07) rotate(76.58)" gradientUnits="userSpaceOnUse"><stop offset="0" stop-color="#eef0ff"/><stop offset="1" stop-color="#ddcdff"/></linearGradient><linearGradient id="Áåçûìÿííûé_ãðàäèåíò_373-2" x1="64.57" y1="63.31" x2="64.57" y2="44.42" xlink:href="#Áåçûìÿííûé_ãðàäèåíò_373"/><linearGradient id="Áåçûìÿííûé_ãðàäèåíò_373-3" x1="70.52" y1="64.45" x2="70.52" y2="61.61" xlink:href="#Áåçûìÿííûé_ãðàäèåíò_373"/><linearGradient id="Áåçûìÿííûé_ãðàäèåíò_373-4" x1="68.15" y1="70.19" x2="68.15" y2="66.04" xlink:href="#Áåçûìÿííûé_ãðàäèåíò_373"/><linearGradient id="Áåçûìÿííûé_ãðàäèåíò_373-5" x1="46.22" y1="63.97" x2="46.22" y2="61.56" xlink:href="#Áåçûìÿííûé_ãðàäèåíò_373"/><linearGradient id="Áåçûìÿííûé_ãðàäèåíò_373-6" x1="82.39" y1="63.97" x2="82.39" y2="61.56" xlink:href="#Áåçûìÿííûé_ãðàäèåíò_373"/><linearGradient id="Áåçûìÿííûé_ãðàäèåíò_373-7" x1="64.79" y1="45.63" x2="64.79" y2="43.22" xlink:href="#Áåçûìÿííûé_ãðàäèåíò_373"/><linearGradient id="Áåçûìÿííûé_ãðàäèåíò_90" x1="67.13" y1="113.54" x2="67.13" y2="95.6" gradientUnits="userSpaceOnUse"><stop offset="0" stop-color="#d1bbff"/><stop offset="1" stop-color="#efeaff"/></linearGradient><linearGradient id="Áåçûìÿííûé_ãðàäèåíò_6-2" x1="67.25" y1="112.02" x2="67.25" y2="97.7" gradientTransform="matrix(1, 0, 0, 1, 0, 0)" xlink:href="#Áåçûìÿííûé_ãðàäèåíò_6"/><linearGradient id="Áåçûìÿííûé_ãðàäèåíò_55" x1="67.25" y1="104.31" x2="67.25" y2="97.76" gradientUnits="userSpaceOnUse"><stop offset="0" stop-color="#fff"/><stop offset="1" stop-color="#7460e0"/></linearGradient><linearGradient id="Áåçûìÿííûé_ãðàäèåíò_45" x1="51.34" y1="111.69" x2="51.34" y2="97.63" gradientUnits="userSpaceOnUse"><stop offset="0" stop-color="#b31a8f"/><stop offset="0.01" stop-color="#b51a8f"/><stop offset="0.15" stop-color="#d01789"/><stop offset="0.3" stop-color="#e41484"/><stop offset="0.47" stop-color="#f31281"/><stop offset="0.68" stop-color="#fb117f"/><stop offset="1" stop-color="#fe117e"/></linearGradient><linearGradient id="Áåçûìÿííûé_ãðàäèåíò_264" x1="38.91" y1="105.65" x2="38.91" y2="92.29" gradientUnits="userSpaceOnUse"><stop offset="0" stop-color="#b9acf4"/><stop offset="1" stop-color="#e1d1f5"/></linearGradient><linearGradient id="Áåçûìÿííûé_ãðàäèåíò_264-2" x1="48.11" y1="105.93" x2="48.11" y2="92.3" xlink:href="#Áåçûìÿííûé_ãðàäèåíò_264"/><linearGradient id="Áåçûìÿííûé_ãðàäèåíò_264-3" x1="58" y1="106.1" x2="58" y2="92.54" xlink:href="#Áåçûìÿííûé_ãðàäèåíò_264"/><linearGradient id="Áåçûìÿííûé_ãðàäèåíò_60" x1="81.78" y1="112.02" x2="81.78" y2="107.9" gradientUnits="userSpaceOnUse"><stop offset="0" stop-color="#fff"/><stop offset="1"/></linearGradient></defs><title>3</title><g class="cls-1"><g id="Layer_1" data-name="Layer 1"><path class="cls-2" d="M91,87.43c-16,18-29.53,19.16-39.94,5.65C36.72,74.44,10.38,83.65,8.5,60.25S50.49.66,79.58,5.85,120.58,54,91,87.43Z" transform="translate(-3.36 -5.35)"/><path class="cls-2" d="M24.63,82.27c-7.33-4.85-15.65,1.4-16,6.57s16.07,6.6,18.63,4.56S26.66,83.61,24.63,82.27Z" transform="translate(-3.36 -5.35)"/><polygon class="cls-3" points="72.69 13.47 82.13 19 80.11 22.29 71.22 16.35 72.69 13.47"/><polygon class="cls-4" points="0 45.14 9.32 37.87 11.59 41.01 3.05 47.77 0 45.14"/><polygon class="cls-5" points="36.5 20.17 35.91 27.18 33.62 26.9 34.12 20.44 36.5 20.17"/><polygon class="cls-6" points="106.47 46.72 111.36 52.09 113.28 49.87 108.66 44.79 106.47 46.72"/><path class="cls-7" d="M68.91,89.54a1.21,1.21,0,1,1-1.21-1.21A1.21,1.21,0,0,1,68.91,89.54Z" transform="translate(-3.36 -5.35)"/><path class="cls-8" d="M49.69,98.87S41.25,87.9,43.93,74c0,0,20.82,10.78,21.69,23.89L80,98.24s16.47-14.59,33.2-15.4c0,0-2.58,16-17.57,18Z" transform="translate(-3.36 -5.35)"/><path class="cls-9" d="M84.34,95.72s1-26.21,28.9-31.33c0,0,2.89,25.09-25.5,31.48Z" transform="translate(-3.36 -5.35)"/><path class="cls-10" d="M37.31,98.83s-17.07-8.12-18-37.59c0,0,23,2.75,30.35,37.63Z" transform="translate(-3.36 -5.35)"/><path class="cls-11" d="M113.24,64.39,84.34,95.72l4.25-.9S112.67,89.54,113.24,64.39Z" transform="translate(-3.36 -5.35)"/><path class="cls-11" d="M20.74,63,43.93,98.84l-5.86-.64S20,86.52,20.74,63Z" transform="translate(-3.36 -5.35)"/><path class="cls-12" d="M46,97S34.12,82.56,20.27,90.51C20.27,90.51,29.2,106.58,46,97Z" transform="translate(-3.36 -5.35)"/><path class="cls-11" d="M20.27,90.51l24.61,5.68S32.75,106.17,20.27,90.51Z" transform="translate(-3.36 -5.35)"/><circle class="cls-13" cx="67.7" cy="69.82" r="31.11" transform="translate(-19.84 113.19) rotate(-75.94)"/><path class="cls-14" d="M67,41.18V38.72a30.39,30.39,0,0,1,23.9,10.33l-2,1.45A29.27,29.27,0,0,0,67,41.18Z" transform="translate(-3.36 -5.35)"/><path class="cls-14" d="M90.85,52.93l2.09-1.29a31.07,31.07,0,0,1,3.42,6.06l-2.44.56A30.93,30.93,0,0,0,90.85,52.93Z" transform="translate(-3.36 -5.35)"/><circle class="cls-15" cx="67.7" cy="68.66" r="29.58" transform="translate(-18.22 113.14) rotate(-76.52)"/><circle class="cls-16" cx="67.7" cy="68.66" r="22.76" transform="translate(-18.18 113.2) rotate(-76.56)"/><circle class="cls-17" cx="67.7" cy="70.04" r="20.49" transform="translate(-19.5 114.28) rotate(-76.58)"/><polygon class="cls-18" points="62.87 63.31 64.07 44.42 65.2 44.42 66.27 63.31 62.87 63.31"/><polygon class="cls-19" points="64.57 64.45 64.37 61.61 76.68 62.23 76.68 63.31 64.57 64.45"/><path class="cls-20" d="M70.23,68.11A2.08,2.08,0,1,1,68.15,66,2.08,2.08,0,0,1,70.23,68.11Z" transform="translate(-3.36 -5.35)"/><circle class="cls-21" cx="46.22" cy="62.77" r="1.21"/><circle class="cls-22" cx="82.39" cy="62.77" r="1.21"/><circle class="cls-23" cx="64.79" cy="44.42" r="1.21"/><path class="cls-24" d="M62.53,47.37l2.58,7.24s10.94.16,16.39,6.83L87,58.76C85.75,54.09,76.05,44.13,62.53,47.37Z" transform="translate(-3.36 -5.35)"/><path class="cls-14" d="M54.58,85.9l2.65-3.71a25.3,25.3,0,0,0,15.32,3.6l1.34,4A22.29,22.29,0,0,1,54.58,85.9Z" transform="translate(-3.36 -5.35)"/><path class="cls-25" d="M73.89,39.73s3.65,9.63,11.6,5.3A25.93,25.93,0,0,0,73.89,39.73Z" transform="translate(-3.36 -5.35)"/><path class="cls-26" d="M34.52,112.76,33.46,96.35s33.3-1.59,67.35-.15L98.9,113.54Z" transform="translate(-3.36 -5.35)"/><path class="cls-27" d="M36.71,111.37l-.57-13.49s30.45-.65,62.21.53L97.27,112Z" transform="translate(-3.36 -5.35)"/><path class="cls-28" d="M98.35,98.41a12.1,12.1,0,0,0-2.85,5.9l-56.78-.75-2.58-5.68S84.31,97.37,98.35,98.41Z" transform="translate(-3.36 -5.35)"/><path class="cls-29" d="M36.14,97.88,36.63,111l29.91.69-.92-13.81S55.36,97.32,36.14,97.88Z" transform="translate(-3.36 -5.35)"/><polygon class="cls-30" points="33.12 104.29 41.87 92.28 44.7 92.28 35.36 105.65 33.27 105.65 33.12 104.29"/><polygon class="cls-31" points="41.95 105.81 51.6 92.3 54.26 92.32 45.35 105.93 41.95 105.81"/><polygon class="cls-32" points="53.52 106.1 62.26 92.54 62.47 95.68 55.98 106.1 53.52 106.1"/><polygon class="cls-33" points="31.16 107.42 33.12 109.61 93.46 110.2 95.53 108.19 31.16 107.42"/><path class="cls-14" d="M36.14,97.88l.18,4.91H66l-.33-4.91S55.52,97.65,36.14,97.88Z" transform="translate(-3.36 -5.35)"/><path class="cls-25" d="M57.62,97.67s3.55,3.61,8.33.06Z" transform="translate(-3.36 -5.35)"/><path class="cls-25" d="M62.53,95.63s1.92,2.05,6.38,2,6-2,6-2S64.38,95.61,62.53,95.63Z" transform="translate(-3.36 -5.35)"/><path class="cls-14" d="M38.72,111s17.69-2.74,25.51.64Z" transform="translate(-3.36 -5.35)"/><path class="cls-34" d="M97.27,112s-1.34-.52-2-4.12h-29l.25,3.79Z" transform="translate(-3.36 -5.35)"/><path class="cls-25" d="M83.56,111.8s4.58-2.59,7.88.16Z" transform="translate(-3.36 -5.35)"/><path class="cls-2" d="M109.09,12c-.58-6.09-7.58-7.86-10.55-5.82s3.42,11.57,5.65,12.06S109.24,13.65,109.09,12Z" transform="translate(-3.36 -5.35)"/></g></g></svg>