<svg xmlns="http://www.w3.org/2000/svg" xmlns:xlink="http://www.w3.org/1999/xlink" viewBox="0 0 98.1 116.5"><defs><style>.cls-1{fill:none;}.cls-2{isolation:isolate;}.cls-3{fill:#e1f3ff;}.cls-4{fill:url(#Áåçûìÿííûé_ãðàäèåíò_29);}.cls-5{fill:#bde0ff;}.cls-24,.cls-5{mix-blend-mode:soft-light;}.cls-6{fill:url(#Áåçûìÿííûé_ãðàäèåíò_49);}.cls-7{fill:url(#Áåçûìÿííûé_ãðàäèåíò_29-2);}.cls-8{fill:#ff1d9c;}.cls-9{fill:#6877ff;}.cls-10{fill:url(#Áåçûìÿííûé_ãðàäèåíò_106);}.cls-11{fill:url(#Áåçûìÿííûé_ãðàäèåíò_135);}.cls-12{fill:url(#Áåçûìÿííûé_ãðàäèåíò_96);}.cls-13{fill:url(#Áåçûìÿííûé_ãðàäèåíò_106-2);}.cls-14{fill:url(#Áåçûìÿííûé_ãðàäèåíò_106-3);}.cls-15{fill:url(#Áåçûìÿííûé_ãðàäèåíò_106-4);}.cls-16{fill:url(#Áåçûìÿííûé_ãðàäèåíò_106-5);}.cls-17{fill:url(#Áåçûìÿííûé_ãðàäèåíò_106-6);}.cls-18{fill:url(#Áåçûìÿííûé_ãðàäèåíò_106-7);}.cls-19,.cls-20,.cls-29,.cls-30,.cls-31,.cls-32,.cls-33,.cls-39,.cls-40{mix-blend-mode:multiply;}.cls-19{fill:url(#Áåçûìÿííûé_ãðàäèåíò_75);}.cls-20{fill:url(#Áåçûìÿííûé_ãðàäèåíò_75-2);}.cls-21{fill:#4f31e0;}.cls-22{fill:#7c006f;}.cls-23{fill:url(#Áåçûìÿííûé_ãðàäèåíò_125);}.cls-24,.cls-42{fill:#fff;}.cls-25{fill:url(#Áåçûìÿííûé_ãðàäèåíò_322);}.cls-26{fill:#981382;}.cls-27{fill:url(#Áåçûìÿííûé_ãðàäèåíò_78);}.cls-28{fill:url(#Áåçûìÿííûé_ãðàäèåíò_78-2);}.cls-29,.cls-30,.cls-31,.cls-32,.cls-39,.cls-40{opacity:0.62;}.cls-29{fill:url(#Áåçûìÿííûé_ãðàäèåíò_75-3);}.cls-30{fill:url(#Áåçûìÿííûé_ãðàäèåíò_75-4);}.cls-31{fill:url(#Áåçûìÿííûé_ãðàäèåíò_75-5);}.cls-32{fill:url(#Áåçûìÿííûé_ãðàäèåíò_75-6);}.cls-33{fill:#c99ac7;opacity:0.86;}.cls-34{clip-path:url(#clip-path);}.cls-35{fill:url(#Áåçûìÿííûé_ãðàäèåíò_64);}.cls-36{fill:url(#Áåçûìÿííûé_ãðàäèåíò_89);}.cls-37{fill:#e5e2ff;}.cls-38{fill:url(#Áåçûìÿííûé_ãðàäèåíò_89-2);}.cls-39{fill:url(#Áåçûìÿííûé_ãðàäèåíò_75-7);}.cls-40{fill:url(#Áåçûìÿííûé_ãðàäèåíò_94);}.cls-41{opacity:0.5;mix-blend-mode:screen;fill:url(#Áåçûìÿííûé_ãðàäèåíò_95);}</style><radialGradient id="Áåçûìÿííûé_ãðàäèåíò_29" cx="105.58" cy="81.76" r="18.73" gradientTransform="translate(-0.22 -13.9) rotate(10.35)" gradientUnits="userSpaceOnUse"><stop offset="0" stop-color="#3996f7"/><stop offset="1" stop-color="#6840d5"/></radialGradient><linearGradient id="Áåçûìÿííûé_ãðàäèåíò_49" x1="-18.56" y1="107.62" x2="-18.56" y2="66.77" gradientTransform="matrix(0.87, -0.5, 0.5, 0.87, 5.17, 14.12)" gradientUnits="userSpaceOnUse"><stop offset="0" stop-color="#1c257b"/><stop offset="1" stop-color="#6a2c9a"/></linearGradient><radialGradient id="Áåçûìÿííûé_ãðàäèåíò_29-2" cx="107.67" cy="48.44" r="10.09" gradientTransform="translate(-13.41 -28.35) rotate(39.12)" xlink:href="#Áåçûìÿííûé_ãðàäèåíò_29"/><linearGradient id="Áåçûìÿííûé_ãðàäèåíò_106" x1="77.81" y1="69.91" x2="102.36" y2="69.91" gradientUnits="userSpaceOnUse"><stop offset="0" stop-color="#3d2c97"/><stop offset="1" stop-color="#183683"/></linearGradient><linearGradient id="Áåçûìÿííûé_ãðàäèåíò_135" x1="90.08" y1="79.32" x2="90.08" y2="55.48" gradientUnits="userSpaceOnUse"><stop offset="0" stop-color="#7459f1"/><stop offset="1" stop-color="#60b3f7"/></linearGradient><linearGradient id="Áåçûìÿííûé_ãðàäèåíò_96" x1="90.08" y1="78.73" x2="90.08" y2="55.96" gradientUnits="userSpaceOnUse"><stop offset="0" stop-color="#744fd8"/><stop offset="1" stop-color="#3996f7"/></linearGradient><linearGradient id="Áåçûìÿííûé_ãðàäèåíò_106-2" x1="94.78" y1="78.88" x2="99.46" y2="78.88" xlink:href="#Áåçûìÿííûé_ãðàäèåíò_106"/><linearGradient id="Áåçûìÿííûé_ãðàäèåíò_106-3" x1="80.71" y1="78.88" x2="85.4" y2="78.88" xlink:href="#Áåçûìÿííûé_ãðàäèåíò_106"/><linearGradient id="Áåçûìÿííûé_ãðàäèåíò_106-4" x1="90.2" y1="66.23" x2="93.33" y2="66.23" xlink:href="#Áåçûìÿííûé_ãðàäèåíò_106"/><linearGradient id="Áåçûìÿííûé_ãðàäèåíò_106-5" x1="83.31" y1="55.19" x2="83.95" y2="55.19" xlink:href="#Áåçûìÿííûé_ãðàäèåíò_106"/><linearGradient id="Áåçûìÿííûé_ãðàäèåíò_106-6" x1="78.16" y1="55.19" x2="78.79" y2="55.19" xlink:href="#Áåçûìÿííûé_ãðàäèåíò_106"/><linearGradient id="Áåçûìÿííûé_ãðàäèåíò_106-7" x1="70.34" y1="67.6" x2="70.34" y2="64.85" xlink:href="#Áåçûìÿííûé_ãðàäèåíò_106"/><linearGradient id="Áåçûìÿííûé_ãðàäèåíò_75" x1="77.05" y1="79.68" x2="77.05" y2="73.85" gradientUnits="userSpaceOnUse"><stop offset="0" stop-color="#8b8be0"/><stop offset="1" stop-color="#a177b7"/></linearGradient><linearGradient id="Áåçûìÿííûé_ãðàäèåíò_75-2" x1="85.06" y1="79.43" x2="85.06" y2="73.85" xlink:href="#Áåçûìÿííûé_ãðàäèåíò_75"/><linearGradient id="Áåçûìÿííûé_ãðàäèåíò_125" x1="61.62" y1="114.37" x2="61.62" y2="71.46" gradientUnits="userSpaceOnUse"><stop offset="0" stop-color="#971a8f"/><stop offset="0.47" stop-color="#ef22ac"/><stop offset="1" stop-color="#fe4cce"/></linearGradient><linearGradient id="Áåçûìÿííûé_ãðàäèåíò_322" x1="61.62" y1="113.4" x2="61.62" y2="72.44" gradientUnits="userSpaceOnUse"><stop offset="0" stop-color="#b31a8f"/><stop offset="1" stop-color="#fe117e"/></linearGradient><linearGradient id="Áåçûìÿííûé_ãðàäèåíò_78" x1="48.94" y1="72.73" x2="48.94" y2="69.89" gradientUnits="userSpaceOnUse"><stop offset="0" stop-color="#3d2cb0"/><stop offset="1" stop-color="#0355c7"/></linearGradient><linearGradient id="Áåçûìÿííûé_ãðàäèåíò_78-2" x1="56.23" y1="72.82" x2="56.23" y2="69.89" xlink:href="#Áåçûìÿííûé_ãðàäèåíò_78"/><linearGradient id="Áåçûìÿííûé_ãðàäèåíò_75-3" x1="63.34" y1="112.55" x2="63.34" y2="104.67" xlink:href="#Áåçûìÿííûé_ãðàäèåíò_75"/><linearGradient id="Áåçûìÿííûé_ãðàäèåíò_75-4" x1="71.55" y1="98.92" x2="71.55" y2="93.97" xlink:href="#Áåçûìÿííûé_ãðàäèåíò_75"/><linearGradient id="Áåçûìÿííûé_ãðàäèåíò_75-5" x1="41.82" y1="112.55" x2="41.82" y2="104.66" xlink:href="#Áåçûìÿííûé_ãðàäèåíò_75"/><linearGradient id="Áåçûìÿííûé_ãðàäèåíò_75-6" x1="33.6" y1="98.92" x2="33.6" y2="93.97" xlink:href="#Áåçûìÿííûé_ãðàäèåíò_75"/><clipPath id="clip-path" transform="translate(-9.03 -2.15)"><path class="cls-1" d="M66,27.15,48.56,37.06l2.3,28.84,2.79,26.19a8,8,0,0,0,15.59,2.26h0L83.37,73.5,94.5,33.94Z"/></clipPath><linearGradient id="Áåçûìÿííûé_ãðàäèåíò_64" x1="76.83" y1="105.25" x2="76.83" y2="32.18" gradientTransform="matrix(0.99, 0.12, -0.12, 0.99, -3.62, -8.23)" gradientUnits="userSpaceOnUse"><stop offset="0" stop-color="#dbccff"/><stop offset="1" stop-color="#d1bbff"/></linearGradient><linearGradient id="Áåçûìÿííûé_ãðàäèåíò_89" x1="76.82" y1="108.1" x2="76.82" y2="35.03" gradientTransform="matrix(0.99, 0.12, -0.12, 0.99, -3.62, -8.23)" gradientUnits="userSpaceOnUse"><stop offset="0" stop-color="#b5a6e7"/><stop offset="1" stop-color="#7760bf"/></linearGradient><linearGradient id="Áåçûìÿííûé_ãðàäèåíò_89-2" x1="76.82" y1="89.94" x2="76.82" y2="59.13" xlink:href="#Áåçûìÿííûé_ãðàäèåíò_89"/><linearGradient id="Áåçûìÿííûé_ãðàäèåíò_75-7" x1="72.45" y1="59.75" x2="81.19" y2="59.75" gradientTransform="matrix(0.99, 0.12, -0.12, 0.99, -3.62, -8.23)" xlink:href="#Áåçûìÿííûé_ãðàäèåíò_75"/><linearGradient id="Áåçûìÿííûé_ãðàäèåíò_94" x1="76.82" y1="61.78" x2="76.82" y2="56.49" gradientTransform="matrix(0.99, 0.12, -0.12, 0.99, -3.62, -8.23)" gradientUnits="userSpaceOnUse"><stop offset="0" stop-color="#fff"/><stop offset="1" stop-color="#a177b7"/></linearGradient><linearGradient id="Áåçûìÿííûé_ãðàäèåíò_95" x1="81.45" y1="93.08" x2="81.45" y2="59.12" gradientTransform="matrix(0.99, 0.12, -0.12, 0.99, -3.62, -8.23)" gradientUnits="userSpaceOnUse"><stop offset="0"/><stop offset="1" stop-color="#fff"/></linearGradient></defs><title>4</title><g class="cls-2"><g id="Layer_1" data-name="Layer 1"><path class="cls-3" d="M36,85.73C20.34,75.07,17.36,39.6,34.24,23.67c17.84-16.83,72.52-2.23,72.89,26.69S51.79,96.53,36,85.73Z" transform="translate(-9.03 -2.15)"/><path class="cls-4" d="M71.63,106.93s4.79-21.69,28.85-21.7c0,0-1.41,21.35-26,22.35Z" transform="translate(-9.03 -2.15)"/><path class="cls-5" d="M100.48,85.23l-28.85,21.7,3.68-.1S96.18,106.1,100.48,85.23Z" transform="translate(-9.03 -2.15)"/><path class="cls-6" d="M48.56,113.31s-24,.84-39.53-24.43c0,0,21.45-9.1,45.32,17.66Z" transform="translate(-9.03 -2.15)"/><path class="cls-5" d="M11.14,89.73,49.31,109.4l-5.44,2.37S22.23,110.63,11.14,89.73Z" transform="translate(-9.03 -2.15)"/><path class="cls-7" d="M47.65,93.37s-.11-18.81-16-21.4C31.69,72,28.47,90.19,47.65,93.37Z" transform="translate(-9.03 -2.15)"/><path class="cls-5" d="M31.69,72,47.29,92S31.49,92.12,31.69,72Z" transform="translate(-9.03 -2.15)"/><polygon class="cls-8" points="58.03 13.9 70.38 14.43 70.06 18.48 58.67 18.07 58.03 13.9"/><polygon class="cls-9" points="25.63 37.85 30.74 43.47 32.75 41.15 27.92 35.84 25.63 37.85"/><path class="cls-10" d="M99.25,70a1.85,1.85,0,0,0,0-.23l3.12-.24A8.56,8.56,0,0,0,100.57,64l-2.48,1.53a9.16,9.16,0,0,0-5.74-4.42L93,58.49a8.59,8.59,0,0,0-5.79,0l.64,2.62a9.14,9.14,0,0,0-5.74,4.42L79.6,64a8.63,8.63,0,0,0-1.78,5.51l3.12.24a1.85,1.85,0,0,0,0,.23,9.09,9.09,0,0,0,2.43,6.2l-2.64,2.25a8.48,8.48,0,0,0,4.68,3.4l1.37-3.32a9.06,9.06,0,0,0,6.64,0l1.37,3.32a8.59,8.59,0,0,0,4.68-3.4l-2.64-2.25A9.09,9.09,0,0,0,99.25,70ZM91.34,73.5a3.69,3.69,0,0,1-2.51,0,3.5,3.5,0,0,1-1.34-.84,3.65,3.65,0,0,1-1.13-2.49,1.21,1.21,0,0,1,0-.19,3.62,3.62,0,0,1,.37-1.6,3.67,3.67,0,0,1,2.38-2,3.54,3.54,0,0,1,2,0,3.71,3.71,0,0,1,2.39,2,3.61,3.61,0,0,1,.36,1.6,1.21,1.21,0,0,1,0,.19,3.64,3.64,0,0,1-1.12,2.49A3.46,3.46,0,0,1,91.34,73.5Z" transform="translate(-9.03 -2.15)"/><path class="cls-11" d="M99.24,67.47v-.23l3.11-.24a8.5,8.5,0,0,0-1.78-5.51L98.09,63a9.15,9.15,0,0,0-5.75-4.42L93,56a8.59,8.59,0,0,0-5.79,0l.63,2.62A9.12,9.12,0,0,0,82.09,63L79.6,61.49A8.58,8.58,0,0,0,77.81,67l3.13.24a1.77,1.77,0,0,0,0,.23,9.09,9.09,0,0,0,2.42,6.2l-2.64,2.25a8.6,8.6,0,0,0,4.68,3.4L86.76,76a9.23,9.23,0,0,0,6.65,0l1.37,3.32a8.59,8.59,0,0,0,4.68-3.4l-2.64-2.25A9.09,9.09,0,0,0,99.24,67.47ZM91.34,71a3.56,3.56,0,0,1-1.26.23A3.47,3.47,0,0,1,88.83,71a3.56,3.56,0,0,1-1.35-.83,3.64,3.64,0,0,1-1.12-2.49,1.21,1.21,0,0,1,0-.19,3.58,3.58,0,0,1,.36-1.6,3.68,3.68,0,0,1,2.39-2,3.18,3.18,0,0,1,1-.14,3.25,3.25,0,0,1,1,.14,3.64,3.64,0,0,1,2.38,2,3.58,3.58,0,0,1,.37,1.6,1.21,1.21,0,0,1,0,.19,3.65,3.65,0,0,1-1.13,2.49A3.59,3.59,0,0,1,91.34,71Z" transform="translate(-9.03 -2.15)"/><path class="cls-12" d="M85.11,78.73A8,8,0,0,1,81.37,76l2.69-2.28-.35-.37a8.6,8.6,0,0,1-2.29-5.87v-.19l0-.49-3.17-.24a8.23,8.23,0,0,1,1.44-4.41l2.53,1.56.25-.45a8.69,8.69,0,0,1,5.43-4.18l.47-.12-.65-2.65A7.66,7.66,0,0,1,90,56a8.64,8.64,0,0,1,2.39.35L91.76,59l.47.12a8.65,8.65,0,0,1,5.43,4.18l.25.45,2.53-1.56a8.07,8.07,0,0,1,1.43,4.41l-3.15.24,0,.49a1.21,1.21,0,0,1,0,.19,8.61,8.61,0,0,1-2.3,5.87l-.34.37L98.81,76a8.08,8.08,0,0,1-3.76,2.72l-1.37-3.35-.45.18a8.68,8.68,0,0,1-6.29,0l-.44-.18Zm5-15.49A4.1,4.1,0,0,0,89,63.4a4.19,4.19,0,0,0-2.69,2.26,4.07,4.07,0,0,0-.41,1.81,1.23,1.23,0,0,0,0,.27,4,4,0,0,0,1.27,2.76,3.92,3.92,0,0,0,1.53.94,3.75,3.75,0,0,0,1.4.25,4,4,0,0,0,1.43-.25A4,4,0,0,0,93,70.5a4.11,4.11,0,0,0,1.27-2.82.84.84,0,0,0,0-.21,4,4,0,0,0-.42-1.82,4.15,4.15,0,0,0-2.7-2.25A3.86,3.86,0,0,0,90.08,63.24Z" transform="translate(-9.03 -2.15)"/><path class="cls-13" d="M99.46,75.92v2.51a8.31,8.31,0,0,1-4.68,3.4V79.32A11.76,11.76,0,0,0,99.46,75.92Z" transform="translate(-9.03 -2.15)"/><path class="cls-14" d="M85.39,79.32v2.51a8.92,8.92,0,0,1-4.68-3.4V75.92S82.77,78.65,85.39,79.32Z" transform="translate(-9.03 -2.15)"/><polygon class="cls-15" points="93.32 64.85 93.33 67.36 90.21 67.6 90.2 65.09 93.32 64.85"/><polygon class="cls-16" points="83.7 56.55 83.95 56.34 83.94 53.83 83.31 56.45 83.7 56.55"/><polygon class="cls-17" points="78.16 53.83 78.16 56.34 78.41 56.55 78.79 56.45 78.16 53.83"/><polygon class="cls-18" points="68.78 64.85 68.78 67.36 71.91 67.6 71.9 65.09 68.78 64.85"/><polygon class="cls-19" points="76.37 79.68 76.36 77.17 77.73 73.85 77.73 76.36 76.37 79.68"/><polygon class="cls-20" points="84.38 76.36 84.38 73.85 85.75 77.17 85.75 79.43 84.38 76.36"/><polygon class="cls-21" points="95.05 40.85 89.9 43.97 87.84 40.06 93.47 36.77 95.05 40.85"/><path class="cls-3" d="M57.46,2.66C51.73.45,47,6,47.49,9.55s12,2.1,13.4.32S59,3.27,57.46,2.66Z" transform="translate(-9.03 -2.15)"/><path class="cls-22" d="M82.49,101.08c.84-2.48,1.45-8.4,0-12.07L79,93.91A17.62,17.62,0,0,0,76.46,87l2.68-1.85a13.72,13.72,0,0,0-5.53-5.54l-1.72,2.51a17.31,17.31,0,0,0-6.91-3l.54-2.85a13.61,13.61,0,0,0-7.82,0l.53,2.85a17.19,17.19,0,0,0-6.91,3l-1.71-2.52a13.78,13.78,0,0,0-5.53,5.54L46.77,87a17.17,17.17,0,0,0-2.52,6.9l-3.53-.66a13.9,13.9,0,0,0,0,7.83l3.82-.72a17.47,17.47,0,0,0,3,6.44l-3.46,2.37a13.81,13.81,0,0,0,5.53,5.53l2.49-3.64a17.25,17.25,0,0,0,6.43,2.53l-.83,4.46a13.87,13.87,0,0,0,7.82,0l-.83-4.45a17.4,17.4,0,0,0,6.44-2.53l2.48,3.63a13.69,13.69,0,0,0,5.53-5.53l-3.46-2.37a17.14,17.14,0,0,0,3-6.44Zm-14.72.3a8.32,8.32,0,0,1-2,1.78,7.91,7.91,0,0,1-2.8,1,7.09,7.09,0,0,1-1.31.11,7.2,7.2,0,0,1-1.32-.11,8.11,8.11,0,0,1-2.79-1,8.2,8.2,0,0,1-2.06-1.79A8.12,8.12,0,0,1,54,98.59a8,8,0,0,1-.32-2.25c0-.22,0-.45,0-.66a8,8,0,0,1,1-3.27A8.24,8.24,0,0,1,56.73,90,8,8,0,0,1,60,88.53a8.45,8.45,0,0,1,1.61-.16,8.64,8.64,0,0,1,1.62.16A8,8,0,0,1,66.48,90a8.43,8.43,0,0,1,2.07,2.38,8.16,8.16,0,0,1,1,3.27c0,.21,0,.44,0,.66a8,8,0,0,1-1.8,5Z" transform="translate(-9.03 -2.15)"/><path class="cls-23" d="M82.5,96.83a14,14,0,0,0,.35-6.48A8.45,8.45,0,0,0,82.5,89L79,89.67a17.58,17.58,0,0,0-2.52-6.91l2.68-1.84a10.82,10.82,0,0,0-1.46-2.19,13.16,13.16,0,0,0-4.06-3.35L71.9,77.9a17.19,17.19,0,0,0-6.91-3L65.53,72a13.56,13.56,0,0,0-7.83,0l.54,2.85a17.19,17.19,0,0,0-6.91,3l-1.72-2.52a13.78,13.78,0,0,0-5.53,5.54l2.7,1.84a17.29,17.29,0,0,0-2.53,6.91L40.73,89a11.32,11.32,0,0,0-.54,3.12,12.65,12.65,0,0,0,.54,4.7l3.82-.71a17.47,17.47,0,0,0,3,6.44l-3.47,2.37a12.15,12.15,0,0,0,2,2.78,12.34,12.34,0,0,0,3.51,2.74l2.5-3.64a17.2,17.2,0,0,0,6.43,2.54l-.84,4.45a13.73,13.73,0,0,0,7.83,0l-.84-4.44A17.09,17.09,0,0,0,69,108a16.67,16.67,0,0,0,2.11-1.17l2.49,3.63a13.58,13.58,0,0,0,5.52-5.52l-3.46-2.37a17.31,17.31,0,0,0,3-6.44Zm-14.72.31a8.19,8.19,0,0,1-2.06,1.78,8,8,0,0,1-2.79,1,8.08,8.08,0,0,1-1.31.11,8.2,8.2,0,0,1-1.32-.11,8.07,8.07,0,0,1-2.58-.9l-.21-.11A8.05,8.05,0,0,1,54,94.35s0-.12,0-.18a8.35,8.35,0,0,1-.27-2.08c0-.21,0-.45,0-.65a8.16,8.16,0,0,1,1-3.27A8.08,8.08,0,0,1,56,86.49a8.5,8.5,0,0,1,.78-.7A7.86,7.86,0,0,1,60,84.29a8.56,8.56,0,0,1,1.62-.16,7.38,7.38,0,0,1,.82,0h0l.79.12a7.88,7.88,0,0,1,3.25,1.5,8.59,8.59,0,0,1,2.07,2.38,8.16,8.16,0,0,1,1,3.27c0,.2,0,.44,0,.65a8,8,0,0,1-.33,2.26c-.08.28-.18.54-.28.8A8.33,8.33,0,0,1,67.78,97.14Z" transform="translate(-9.03 -2.15)"/><path class="cls-24" d="M57.72,99l-10.17,3.52a17.47,17.47,0,0,1-3-6.44l-3.82.71a12.65,12.65,0,0,1-.54-4.7L56,86.49a8.08,8.08,0,0,0-1.29,1.68,8.16,8.16,0,0,0-1,3.27c0,.2,0,.44,0,.65a8.35,8.35,0,0,0,.27,2.08c0,.06,0,.13,0,.18a8.05,8.05,0,0,0,3.54,4.58Z" transform="translate(-9.03 -2.15)"/><path class="cls-24" d="M69.25,94.35a8,8,0,0,0,.33-2.26c0-.21,0-.45,0-.65a8.16,8.16,0,0,0-1-3.27,8.59,8.59,0,0,0-2.07-2.38,7.88,7.88,0,0,0-3.25-1.5l-.79-.12,15.23-5.44a10.82,10.82,0,0,1,1.46,2.19l-2.68,1.84A17.58,17.58,0,0,1,79,89.67L82.5,89a8.45,8.45,0,0,1,.35,1.34L69,95.15C69.07,94.89,69.17,94.63,69.25,94.35Z" transform="translate(-9.03 -2.15)"/><path class="cls-25" d="M61.67,113.4a13.22,13.22,0,0,1-2.85-.29l.85-4.55-1-.17A16.1,16.1,0,0,1,52.64,106l-.79-.52-2.54,3.7a13.18,13.18,0,0,1-2.5-2.12,11.83,11.83,0,0,1-1.44-1.84l3.56-2.43-.61-.81A16.35,16.35,0,0,1,45.5,95.9l-.21-.9-3.87.71a13.8,13.8,0,0,1,0-5.58l3.66.69.14-1a16.06,16.06,0,0,1,2.38-6.52l.5-.8-2.74-1.86a13.92,13.92,0,0,1,4-4l1.79,2.62.81-.59a16,16,0,0,1,6.51-2.85l.95-.19-.55-2.93a12.78,12.78,0,0,1,2.75-.28,13.12,13.12,0,0,1,2.84.29l-.55,2.92,1,.19a16.22,16.22,0,0,1,6.52,2.84l.8.59,1.79-2.61a13.67,13.67,0,0,1,4,4l-2.73,1.87.5.79A16.38,16.38,0,0,1,78,89.81l.15,1,3.65-.69a13.45,13.45,0,0,1,0,5.58L77.94,95l-.21.9A16.17,16.17,0,0,1,74.91,102l-.61.81,3.57,2.44a13.61,13.61,0,0,1-4,3.94l-2.52-3.68-.8.52a15.73,15.73,0,0,1-2,1.1,16,16,0,0,1-4.08,1.29l-1,.17.85,4.55A12.69,12.69,0,0,1,61.67,113.4Zm-.05-30.24a9.11,9.11,0,0,0-1.81.18A8.91,8.91,0,0,0,56.14,85a9.32,9.32,0,0,0-2.31,2.66,9.12,9.12,0,0,0-1.12,3.68c0,.22,0,.49,0,.73A8.78,8.78,0,0,0,53,94.42c0,.12,0,.18.06.24a9.12,9.12,0,0,0,1.64,3.09,9.45,9.45,0,0,0,2.31,2,9.12,9.12,0,0,0,3.15,1.14,8.66,8.66,0,0,0,1.47.12,8.14,8.14,0,0,0,1.48-.13,8.86,8.86,0,0,0,3.13-1.14,9.27,9.27,0,0,0,2.3-2,9,9,0,0,0,1.65-3.13,9.13,9.13,0,0,0,.37-2.54,6,6,0,0,0,0-.74,9,9,0,0,0-1.1-3.66A9.52,9.52,0,0,0,67.09,85a8.87,8.87,0,0,0-3.66-1.68A9.26,9.26,0,0,0,61.62,83.16Z" transform="translate(-9.03 -2.15)"/><polygon class="cls-22" points="70.11 78.77 70.11 83.01 69.13 83.68 67.43 80.61 70.11 78.77"/><path class="cls-26" d="M79.14,109.17v-4.25s-2.52,4-5.53,5.53v4.25S77.89,112.61,79.14,109.17Z" transform="translate(-9.03 -2.15)"/><path class="cls-22" d="M44.08,109.17v-4.25a13.84,13.84,0,0,0,5.53,5.53v4.25S46.67,113.66,44.08,109.17Z" transform="translate(-9.03 -2.15)"/><path class="cls-22" d="M40.72,101.08V96.83a15.65,15.65,0,0,1,0-7.82A16.72,16.72,0,0,0,40.72,101.08Z" transform="translate(-9.03 -2.15)"/><polygon class="cls-22" points="35.04 83.01 35.05 78.77 37.74 80.61 36.02 83.68 35.04 83.01"/><polygon class="cls-27" points="48.67 72.15 48.67 69.89 49.21 72.73 48.78 72.73 48.67 72.15"/><polygon class="cls-28" points="56.49 69.89 56.49 72.15 56.37 72.82 55.96 72.73 56.49 69.89"/><polygon class="cls-29" points="64.58 112.55 64.58 108.3 62.1 104.67 62.09 108.92 64.58 112.55"/><polygon class="cls-30" points="69.64 98.21 69.65 93.97 73.47 94.68 73.46 98.92 69.64 98.21"/><polygon class="cls-31" points="43.07 108.91 43.07 104.66 40.58 108.3 40.57 112.55 43.07 108.91"/><polygon class="cls-32" points="35.51 98.21 35.52 93.97 31.7 94.68 31.69 98.92 35.51 98.21"/><path class="cls-33" d="M64.69,109.36l.84,4.44c-2.77,1.27-6.8.28-7.83,0l.84-4.45a17.2,17.2,0,0,1-6.43-2.54l-2.5,3.64a12.34,12.34,0,0,1-3.51-2.74l7.82-13.54c0,.06,0,.13,0,.18a8,8,0,0,0,7.65,5.7,8.08,8.08,0,0,0,1.31-.11,8,8,0,0,0,2.79-1,8.19,8.19,0,0,0,2.06-1.78L69,108A17.09,17.09,0,0,1,64.69,109.36Z" transform="translate(-9.03 -2.15)"/><path class="cls-22" d="M65.53,113.81v4.24s-2.83,1.36-7.82,0v-4.24A18.24,18.24,0,0,0,65.53,113.81Z" transform="translate(-9.03 -2.15)"/><g class="cls-34"><path class="cls-35" d="M80,48.05a24.39,24.39,0,0,0-4.1-13.82l-2.64-.34-.66,11.24a10.58,10.58,0,0,1-5.94,3.2v0a10.53,10.53,0,0,1-5-4.57l2.14-11.05-2.64-.33a24.35,24.35,0,0,0-7.39,12.37s-.4,2.56-.36,2.83c.22,1.46,1.64,3.88,5.88,6.19L56.52,89.47a8.7,8.7,0,1,0,9.84,1.24l6.09-35.29c4.58-1.17,6.6-3.09,7.22-4.54A27,27,0,0,0,80,48.05ZM62.44,101.64,57.61,101l-1.89-4.48,2.94-3.87,4.83.61,1.88,4.48Z" transform="translate(-9.03 -2.15)"/><path class="cls-36" d="M79.67,50.88a24.42,24.42,0,0,0-4.09-13.82l-2.65-.34L72.28,48a10.62,10.62,0,0,1-6,3.2v0a10.53,10.53,0,0,1-5-4.57l2.15-11-2.65-.33a24.43,24.43,0,0,0-7.39,12.37s.5,6.27,5.52,9L56.16,92.3A8.69,8.69,0,1,0,66,93.54l6.08-35.29C77.64,56.83,79.67,50.88,79.67,50.88ZM62.08,104.47l-4.82-.61-1.89-4.48,2.94-3.87,4.82.6L65,100.6Z" transform="translate(-9.03 -2.15)"/><rect class="cls-37" x="60.95" y="32.61" width="2.85" height="2.66" transform="translate(11.88 89.44) rotate(-82.83)"/><rect class="cls-37" x="73.01" y="34.14" width="2.85" height="2.66" transform="translate(20.92 102.75) rotate(-82.83)"/><rect class="cls-37" x="58.42" y="100.32" width="2.85" height="4.86" transform="translate(-58.6 147.16) rotate(-82.83)"/><path class="cls-38" d="M60.76,60.47l-2.4,29a6.58,6.58,0,0,0,5.94.75l5.13-28.66A10.29,10.29,0,0,0,60.76,60.47Zm2.55,29.38a7.69,7.69,0,0,1-2.08,0,6.5,6.5,0,0,1-1.86-.52L61.46,60.8a14,14,0,0,1,3.87-.07,11.57,11.57,0,0,1,3.34.94Z" transform="translate(-9.03 -2.15)"/><path class="cls-37" d="M63.31,89.85l1,.38a5.82,5.82,0,0,1-5.94-.75l1-.11A7.32,7.32,0,0,0,63.31,89.85Z" transform="translate(-9.03 -2.15)"/><path class="cls-39" d="M60.76,60.47l.7.33a12.57,12.57,0,0,1,7.21.87l.76-.1A8.06,8.06,0,0,0,65.22,60,8,8,0,0,0,60.76,60.47Z" transform="translate(-9.03 -2.15)"/><path class="cls-40" d="M59,56.58a29.72,29.72,0,0,0,13.09,1.67l-.77,4.51s-.63-2.72-5.26-3.53c-5.41-1-7.35,2.65-7.35,2.65Z" transform="translate(-9.03 -2.15)"/><path class="cls-41" d="M71.32,62.76a5.28,5.28,0,0,0-1.76-2.19l-5.74,33.5L66,93.54Z" transform="translate(-9.03 -2.15)"/><path class="cls-42" d="M71.32,62.76s-3.39,2.82-1.14,6.6Z" transform="translate(-9.03 -2.15)"/></g></g></g></svg>