<svg xmlns="http://www.w3.org/2000/svg" xmlns:xlink="http://www.w3.org/1999/xlink" viewBox="0 0 106.63 114.33"><defs><style>.cls-1{isolation:isolate;}.cls-2{fill:#e1f3ff;}.cls-3{fill:url(#Áåçûìÿííûé_ãðàäèåíò_49);}.cls-4{fill:#bde0ff;}.cls-11,.cls-13,.cls-22,.cls-23,.cls-24,.cls-4,.cls-44,.cls-45,.cls-47,.cls-51,.cls-52,.cls-53{mix-blend-mode:soft-light;}.cls-5{fill:url(#Áåçûìÿííûé_ãðàäèåíò_29);}.cls-6{fill:url(#Áåçûìÿííûé_ãðàäèåíò_93);}.cls-7{fill:url(#Áåçûìÿííûé_ãðàäèåíò_103);}.cls-8{fill:url(#Áåçûìÿííûé_ãðàäèåíò_93-2);}.cls-9{fill:#361488;}.cls-29,.cls-37,.cls-41,.cls-49,.cls-9{mix-blend-mode:multiply;}.cls-10{fill:url(#Áåçûìÿííûé_ãðàäèåíò_93-3);}.cls-11{fill:url(#Áåçûìÿííûé_ãðàäèåíò_264);}.cls-12{fill:url(#Áåçûìÿííûé_ãðàäèåíò_96);}.cls-13{fill:url(#Áåçûìÿííûé_ãðàäèåíò_264-2);}.cls-14{fill:url(#Áåçûìÿííûé_ãðàäèåíò_96-2);}.cls-15{fill:#9275c2;}.cls-16{fill:#6effe8;}.cls-17{fill:#839fff;}.cls-18{fill:#6877ff;}.cls-19{fill:#ff1d9c;}.cls-20{fill:#981382;}.cls-21{fill:#140047;}.cls-22{fill:url(#Áåçûìÿííûé_ãðàäèåíò_264-3);}.cls-23,.cls-28{fill:#fff;}.cls-24{fill:url(#Áåçûìÿííûé_ãðàäèåíò_264-4);}.cls-25{fill:url(#Áåçûìÿííûé_ãðàäèåíò_104);}.cls-26{fill:url(#Áåçûìÿííûé_ãðàäèåíò_72);}.cls-27{fill:url(#Áåçûìÿííûé_ãðàäèåíò_93-4);}.cls-29{fill:url(#Áåçûìÿííûé_ãðàäèåíò_92);}.cls-30{fill:url(#Áåçûìÿííûé_ãðàäèåíò_93-5);}.cls-31{fill:url(#Áåçûìÿííûé_ãðàäèåíò_93-6);}.cls-32{fill:#4f31e0;}.cls-33{fill:url(#Áåçûìÿííûé_ãðàäèåíò_77);}.cls-34{fill:url(#Áåçûìÿííûé_ãðàäèåíò_93-7);}.cls-35{fill:url(#Áåçûìÿííûé_ãðàäèåíò_71);}.cls-36{fill:url(#Áåçûìÿííûé_ãðàäèåíò_93-8);}.cls-37{fill:#9a7ab3;}.cls-37,.cls-49{opacity:0.86;}.cls-38{fill:url(#Áåçûìÿííûé_ãðàäèåíò_98);}.cls-39{fill:url(#Áåçûìÿííûé_ãðàäèåíò_98-2);}.cls-40{fill:url(#Áåçûìÿííûé_ãðàäèåíò_96-3);}.cls-41{opacity:0.5;fill:url(#Áåçûìÿííûé_ãðàäèåíò_92-2);}.cls-42{fill:url(#Áåçûìÿííûé_ãðàäèåíò_80);}.cls-43{fill:url(#Áåçûìÿííûé_ãðàäèåíò_77-2);}.cls-44{fill:url(#Áåçûìÿííûé_ãðàäèåíò_264-5);}.cls-45{fill:url(#Áåçûìÿííûé_ãðàäèåíò_264-6);}.cls-46{fill:url(#Áåçûìÿííûé_ãðàäèåíò_77-3);}.cls-47{fill:url(#Áåçûìÿííûé_ãðàäèåíò_264-7);}.cls-48{fill:url(#Áåçûìÿííûé_ãðàäèåíò_103-2);}.cls-49{fill:#9a7ad9;}.cls-50{fill:url(#Áåçûìÿííûé_ãðàäèåíò_77-4);}.cls-51{fill:url(#Áåçûìÿííûé_ãðàäèåíò_264-8);}.cls-53{fill:#e1d197;}</style><linearGradient id="Áåçûìÿííûé_ãðàäèåíò_49" x1="-27.07" y1="53.76" x2="-27.07" y2="20.83" gradientTransform="translate(49.78 17.35) rotate(-4.21)" gradientUnits="userSpaceOnUse"><stop offset="0" stop-color="#1c257b"/><stop offset="1" stop-color="#6a2c9a"/></linearGradient><radialGradient id="Áåçûìÿííûé_ãðàäèåíò_29" cx="128.8" cy="48.77" r="15.09" gradientTransform="matrix(-0.98, 0.18, 0.18, 0.98, 136.43, -13.9)" gradientUnits="userSpaceOnUse"><stop offset="0" stop-color="#3996f7"/><stop offset="1" stop-color="#6840d5"/></radialGradient><linearGradient id="Áåçûìÿííûé_ãðàäèåíò_93" x1="61.16" y1="93.88" x2="61.16" y2="33.72" gradientUnits="userSpaceOnUse"><stop offset="0" stop-color="#1c257b"/><stop offset="1" stop-color="#482c83"/></linearGradient><linearGradient id="Áåçûìÿííûé_ãðàäèåíò_103" x1="61.15" y1="88.41" x2="61.15" y2="36.83" gradientUnits="userSpaceOnUse"><stop offset="0" stop-color="#fdfdff"/><stop offset="1" stop-color="#dbcaff"/></linearGradient><linearGradient id="Áåçûìÿííûé_ãðàäèåíò_93-2" x1="14.52" y1="80.04" x2="14.52" y2="74.96" xlink:href="#Áåçûìÿííûé_ãðàäèåíò_93"/><linearGradient id="Áåçûìÿííûé_ãðàäèåíò_93-3" x1="45.9" y1="103.21" x2="45.9" y2="80.52" xlink:href="#Áåçûìÿííûé_ãðàäèåíò_93"/><linearGradient id="Áåçûìÿííûé_ãðàäèåíò_264" x1="44.54" y1="70.85" x2="44.54" y2="33.72" gradientUnits="userSpaceOnUse"><stop offset="0" stop-color="#b9acf4"/><stop offset="1" stop-color="#e1d1f5"/></linearGradient><linearGradient id="Áåçûìÿííûé_ãðàäèåíò_96" x1="60.83" y1="88.89" x2="60.83" y2="87.14" gradientUnits="userSpaceOnUse"><stop offset="0" stop-color="#744fd8"/><stop offset="1" stop-color="#3996f7"/></linearGradient><linearGradient id="Áåçûìÿííûé_ãðàäèåíò_264-2" x1="59.01" y1="92.92" x2="59.01" y2="88.41" xlink:href="#Áåçûìÿííûé_ãðàäèåíò_264"/><linearGradient id="Áåçûìÿííûé_ãðàäèåíò_96-2" x1="14.52" y1="74.96" x2="14.52" y2="74.15" xlink:href="#Áåçûìÿííûé_ãðàäèåíò_96"/><linearGradient id="Áåçûìÿííûé_ãðàäèåíò_264-3" x1="33.48" y1="41.9" x2="33.48" y2="39.51" xlink:href="#Áåçûìÿííûé_ãðàäèåíò_264"/><linearGradient id="Áåçûìÿííûé_ãðàäèåíò_264-4" x1="43.74" y1="63.8" x2="43.74" y2="36.84" xlink:href="#Áåçûìÿííûé_ãðàäèåíò_264"/><linearGradient id="Áåçûìÿííûé_ãðàäèåíò_104" x1="56.15" y1="69.09" x2="56.15" y2="63.25" gradientUnits="userSpaceOnUse"><stop offset="0" stop-color="#efeaff"/><stop offset="1" stop-color="#d1bbff"/></linearGradient><linearGradient id="Áåçûìÿííûé_ãðàäèåíò_72" x1="62.92" y1="66.54" x2="62.92" y2="49.64" gradientUnits="userSpaceOnUse"><stop offset="0" stop-color="#cf95ff"/><stop offset="1" stop-color="#9552ff"/></linearGradient><linearGradient id="Áåçûìÿííûé_ãðàäèåíò_93-4" x1="56.17" y1="69.59" x2="56.17" y2="69.09" xlink:href="#Áåçûìÿííûé_ãðàäèåíò_93"/><linearGradient id="Áåçûìÿííûé_ãðàäèåíò_92" x1="59.26" y1="67.37" x2="66.48" y2="67.37" gradientUnits="userSpaceOnUse"><stop offset="0" stop-color="#8b8be0"/><stop offset="1" stop-color="#fff"/></linearGradient><linearGradient id="Áåçûìÿííûé_ãðàäèåíò_93-5" x1="18.04" y1="44.9" x2="18.04" y2="41.9" xlink:href="#Áåçûìÿííûé_ãðàäèåíò_93"/><linearGradient id="Áåçûìÿííûé_ãðàäèåíò_93-6" x1="17.82" y1="49.29" x2="17.82" y2="46.63" xlink:href="#Áåçûìÿííûé_ãðàäèåíò_93"/><linearGradient id="Áåçûìÿííûé_ãðàäèåíò_77" x1="78.04" y1="58.3" x2="84.89" y2="58.3" gradientUnits="userSpaceOnUse"><stop offset="0" stop-color="#cf6074"/><stop offset="1" stop-color="#ff817f"/></linearGradient><linearGradient id="Áåçûìÿííûé_ãðàäèåíò_93-7" x1="64.62" y1="60.31" x2="64.62" y2="58.01" xlink:href="#Áåçûìÿííûé_ãðàäèåíò_93"/><linearGradient id="Áåçûìÿííûé_ãðàäèåíò_71" x1="86.81" y1="116.9" x2="86.81" y2="42.73" gradientUnits="userSpaceOnUse"><stop offset="0.02" stop-color="#ffc2a9"/><stop offset="1" stop-color="#ff9595"/></linearGradient><linearGradient id="Áåçûìÿííûé_ãðàäèåíò_93-8" x1="83.73" y1="62.81" x2="83.73" y2="43.63" xlink:href="#Áåçûìÿííûé_ãðàäèåíò_93"/><linearGradient id="Áåçûìÿííûé_ãðàäèåíò_98" x1="74.03" y1="56.15" x2="74.03" y2="42.7" gradientUnits="userSpaceOnUse"><stop offset="0.02" stop-color="#ff9a93"/><stop offset="1" stop-color="#ff9595"/></linearGradient><linearGradient id="Áåçûìÿííûé_ãðàäèåíò_98-2" x1="71.38" y1="79.18" x2="71.38" y2="58.13" xlink:href="#Áåçûìÿííûé_ãðàäèåíò_98"/><linearGradient id="Áåçûìÿííûé_ãðàäèåíò_96-3" x1="102.24" y1="117.49" x2="102.24" y2="88.03" xlink:href="#Áåçûìÿííûé_ãðàäèåíò_96"/><linearGradient id="Áåçûìÿííûé_ãðàäèåíò_92-2" x1="101.19" y1="117.62" x2="101.19" y2="91.15" xlink:href="#Áåçûìÿííûé_ãðàäèåíò_92"/><linearGradient id="Áåçûìÿííûé_ãðàäèåíò_80" x1="88.73" y1="87.05" x2="88.73" y2="57.72" gradientUnits="userSpaceOnUse"><stop offset="0.02" stop-color="#ff997c"/><stop offset="1" stop-color="#ff898e"/></linearGradient><linearGradient id="Áåçûìÿííûé_ãðàäèåíò_77-2" x1="75.28" y1="70.91" x2="79.86" y2="70.91" xlink:href="#Áåçûìÿííûé_ãðàäèåíò_77"/><linearGradient id="Áåçûìÿííûé_ãðàäèåíò_264-5" x1="66.66" y1="61.51" x2="71.38" y2="61.51" xlink:href="#Áåçûìÿííûé_ãðàäèåíò_264"/><linearGradient id="Áåçûìÿííûé_ãðàäèåíò_264-6" x1="68.08" y1="61.46" x2="68.08" y2="58.59" xlink:href="#Áåçûìÿííûé_ãðàäèåíò_264"/><linearGradient id="Áåçûìÿííûé_ãðàäèåíò_77-3" x1="70.4" y1="64.54" x2="70.4" y2="59.46" xlink:href="#Áåçûìÿííûé_ãðàäèåíò_77"/><linearGradient id="Áåçûìÿííûé_ãðàäèåíò_264-7" x1="99.35" y1="55.27" x2="99.35" y2="43.63" xlink:href="#Áåçûìÿííûé_ãðàäèåíò_264"/><linearGradient id="Áåçûìÿííûé_ãðàäèåíò_103-2" x1="100.87" y1="49.76" x2="100.87" y2="47" xlink:href="#Áåçûìÿííûé_ãðàäèåíò_103"/><linearGradient id="Áåçûìÿííûé_ãðàäèåíò_77-4" x1="76.17" y1="52.36" x2="76.17" y2="46.74" xlink:href="#Áåçûìÿííûé_ãðàäèåíò_77"/><linearGradient id="Áåçûìÿííûé_ãðàäèåíò_264-8" x1="75.8" y1="51.84" x2="75.8" y2="45.09" xlink:href="#Áåçûìÿííûé_ãðàäèåíò_264"/></defs><title>5</title><g class="cls-1"><g id="Layer_1" data-name="Layer 1"><path class="cls-2" d="M102.67,84.48C96.94,97.89,47.16,65.26,45.15,48.05S79.79,1.9,102.78,11.47c13,5.39,13.43,23.79,4.49,38.77C99.72,62.89,105.74,77.28,102.67,84.48Z" transform="translate(-6.72 -3.29)"/><path class="cls-2" d="M47.54,3.42c-7.93,1.3-7.46,18.92-3,25.21s16.56-6.56,17-13.24S54.29,2.3,47.54,3.42Z" transform="translate(-6.72 -3.29)"/><path class="cls-3" d="M32.25,72.54S14.52,64.79,12,41c0,0,18.76.86,26.78,28.63Z" transform="translate(-6.72 -3.29)"/><path class="cls-4" d="M13.28,42.37,34.16,70l-4.78-.17A33.92,33.92,0,0,1,13.28,42.37Z" transform="translate(-6.72 -3.29)"/><path class="cls-5" d="M32.43,74.49S28.58,57,9.19,57c0,0,1.14,17.2,21,18Z" transform="translate(-6.72 -3.29)"/><path class="cls-4" d="M9.19,57,32.43,74.49l-3-.09S12.65,73.81,9.19,57Z" transform="translate(-6.72 -3.29)"/><path class="cls-6" d="M99.12,88s0,5.86-5.57,5.86H26.94c-2.19-.22-3.74-2.93-3.74-4.76,0-.71.38-8.75.84-18.33.74-15.15,1.68-34.16,1.68-34.16s.35-2.62,4.52-2.91l32.39.34,30.92.32a5,5,0,0,1,4.18,3.23Z" transform="translate(-6.72 -3.29)"/><path class="cls-7" d="M26.11,87.14s47,2.64,69.35.3c0,0,2.08-25.51-.76-49.25,0,0-35.07-2.44-65.66-.78A395,395,0,0,0,26.11,87.14Z" transform="translate(-6.72 -3.29)"/><polygon class="cls-8" points="16.97 74.96 12.07 74.96 12.07 80.04 16.73 80.04 16.97 74.96"/><path class="cls-9" d="M87.11,88.43l2.45,5.45h4s4.88.28,5.57-5.86V77.85l-3.16.4-.5,9.19Z" transform="translate(-6.72 -3.29)"/><path class="cls-10" d="M48,103.21a111.23,111.23,0,0,1-24.42-2.59c-5.67-1.31-8.72-2.45-9.75-3.68-2.84-.46-5-1.19-6.17-2.31a3,3,0,0,1-1-2.21c0-6.64,12.05-11.69,12.56-11.9l.23.54c-.13,0-12.21,5.11-12.21,11.36a2.41,2.41,0,0,0,.81,1.79c1,1,2.91,1.65,5.41,2.09l0-.14c-.14-.82.45-1.62,1.86-2.52A7.57,7.57,0,0,1,21.78,93a9.53,9.53,0,0,1,5.15,4.08c4.36,0,9.08-.2,13.75-.37,9.78-.36,19-.7,24.42.29,2,.36,2.89.77,2.89,1.36s-.48,1.07-4.08,1.79C54.47,102,29,103.32,27.26,99a10.54,10.54,0,0,0-.66-1.35,90.47,90.47,0,0,1-11.68-.54c1.34.92,4.26,1.9,8.83,3a117.36,117.36,0,0,0,47.69.29c11.66-2.32,13-4.15,13.06-4.83S83.37,94.3,83,94.16l.18-.56c.09,0,2,.69,2,2-.11,1.82-4.54,3.58-13.54,5.36A121.07,121.07,0,0,1,48,103.21ZM27.27,97.63a10.62,10.62,0,0,1,.53,1.13c1,2.52,13.28,3,24.86,2.14,9.81-.72,14.6-2,14.74-2.57,0,0-.14-.38-2.4-.79-5.34-1-14.55-.63-24.29-.28C36.15,97.43,31.55,97.6,27.27,97.63ZM14.21,96.41a81.27,81.27,0,0,0,12,.64,8.93,8.93,0,0,0-4.63-3.52,7.09,7.09,0,0,0-5.93.6c-1.16.74-1.69,1.39-1.6,1.93A1,1,0,0,0,14.21,96.41Z" transform="translate(-6.72 -3.29)"/><path class="cls-11" d="M65,34.55l-1.9,1.71s-27.9-.23-34.59.57c0,0-2.91,20.31-2.91,33l-1.59,1v-.06c.74-15.15,1.68-34.16,1.68-34.16s.35-2.62,4.52-2.91l32.39.34Z" transform="translate(-6.72 -3.29)"/><path class="cls-12" d="M26.11,87.14l-.65.66s44.85,2.48,70.73,0l-.73-.34A682.91,682.91,0,0,1,26.11,87.14Z" transform="translate(-6.72 -3.29)"/><path class="cls-13" d="M42.27,88.41l6.06,4.51H75.75L71.58,89S47.07,88.74,42.27,88.41Z" transform="translate(-6.72 -3.29)"/><polygon class="cls-14" points="12.07 74.96 15.69 74.15 16.97 74.15 16.97 74.96 12.07 74.96"/><path class="cls-15" d="M30.68,42.8a99.66,99.66,0,0,0-1.31,13.8H50.09s-.1-10.18,0-13.8Z" transform="translate(-6.72 -3.29)"/><polygon class="cls-16" points="30.5 46.63 27.11 46.63 27.3 43.17 30.63 43.17 30.5 46.63"/><polygon class="cls-17" points="34.83 46.63 31.44 46.63 31.56 43.17 34.9 43.17 34.83 46.63"/><polygon class="cls-18" points="39.17 46.63 35.78 46.63 35.83 43.17 39.17 43.17 39.17 46.63"/><polygon class="cls-19" points="30.32 51.38 26.86 51.38 27.04 47.92 30.45 47.92 30.32 51.38"/><polygon class="cls-20" points="34.74 51.38 31.28 51.38 31.4 47.92 34.81 47.92 34.74 51.38"/><polygon class="cls-21" points="39.17 51.38 35.71 51.38 35.76 47.92 39.17 47.92 39.17 51.38"/><polygon class="cls-22" points="23.6 41.9 43.33 41.9 43.37 39.51 23.96 39.51 23.6 41.9"/><polygon class="cls-23" points="24.07 41.54 24.29 39.91 25.9 39.91 25.73 41.54 24.07 41.54"/><path class="cls-24" d="M27,63.8,60.45,36.88s-16-.27-31.41.53C29,37.41,27.7,55.41,27,63.8Z" transform="translate(-6.72 -3.29)"/><polygon class="cls-25" points="52.95 68.04 53.5 63.25 58.98 63.25 59.35 67.85 57.54 69.09 54.81 69.09 52.95 68.04"/><path class="cls-26" d="M62.87,49.64c-8.36,0-8,9-5.06,12.38,2.1,2.38,1.24,3.3,1.45,3.76s1,.76,1,.76h5.29a2,2,0,0,0,1-.76c.2-.46-.68-1.4,1.44-3.76C71,58.58,71.37,49.64,62.87,49.64Z" transform="translate(-6.72 -3.29)"/><polygon class="cls-27" points="54.81 69.09 55.53 69.59 56.82 69.59 57.54 69.09 54.81 69.09"/><path class="cls-28" d="M57.25,54.78H58.9a7.61,7.61,0,0,1,1.27-3.25l-1.46-.37A4.42,4.42,0,0,0,57.25,54.78Z" transform="translate(-6.72 -3.29)"/><path class="cls-23" d="M66.75,60.61l.93.5a7.45,7.45,0,0,0,1.75-4.75H68.12A6.5,6.5,0,0,1,66.75,60.61Z" transform="translate(-6.72 -3.29)"/><path class="cls-29" d="M59.26,65.78s5.11.69,7.22,0a1.41,1.41,0,0,1-.78.76L65.89,69a13,13,0,0,0-5.76-1.59l.09-.83A2.78,2.78,0,0,1,59.26,65.78Z" transform="translate(-6.72 -3.29)"/><polygon class="cls-30" points="18.58 41.9 17.5 41.9 17.5 44.73 18.43 44.9 18.58 41.9"/><polygon class="cls-31" points="18.34 46.63 17.5 46.87 17.29 49 18.21 49.29 18.34 46.63"/><polygon class="cls-19" points="94.32 32.81 99.45 29.2 101.62 30.43 95.91 35.69 94.32 32.81"/><polygon class="cls-32" points="22.63 26.52 27.83 24.05 29.18 26.57 23.85 27.88 22.63 26.52"/><polygon class="cls-18" points="75.17 99.34 82.53 99.15 84.16 101.64 75.77 101.31 75.17 99.34"/><path class="cls-33" d="M79.7,51.92s-2,6.82-1.62,9.61a3.52,3.52,0,0,0,3.41,3.15l3.4-8.53Z" transform="translate(-6.72 -3.29)"/><path class="cls-34" d="M65.06,58s-1.22.89-1.14,1.29,1.4,1,1.4,1Z" transform="translate(-6.72 -3.29)"/><path class="cls-35" d="M107,94.47l-1.32,22.43S87.42,92.46,81.92,88.09c-.47-.38-.93-.72-1.35-1a28.36,28.36,0,0,0-7.29-4.2,8.48,8.48,0,0,1-2.36-3.32c-.18-.7-.18-10.83-.76-13.1S66.9,61.83,66.67,61a2.37,2.37,0,0,1,1.74-2.39c1-.18,6.12,1.34,7.69,6.53a12,12,0,0,0-1,2.56,10,10,0,0,0,.17,3.66,10.4,10.4,0,0,0,3.09.18c.93-.23,2.68-5.35,2.56-9.32S77,50.7,77,50.7L74.12,44s3.32-1.58,5.13-1.23c0,0,2.85,4.6,4.54,5.59,0,0,3.76.64,5.91,1.28a10.4,10.4,0,0,1,4.75,2.16,8,8,0,0,1,3.49,1c1.11.88,5.94,7,6.23,8.63v.1c.14,2-3.61,13.29-11,20.75,0,0,1.76,1.69,4.33,4h0C100.17,88.77,103.67,91.85,107,94.47Z" transform="translate(-6.72 -3.29)"/><path class="cls-36" d="M99.09,55.1h0a2.91,2.91,0,0,1-1,.31s-10.83,1.72-18.76,3.17h0a58.66,58.66,0,0,0-8.12,1.77,3.4,3.4,0,0,0-1.11,1,2.78,2.78,0,0,0-.53,1.46,7,7,0,0,1-4.25-2.5,2.18,2.18,0,0,1-.49-2.1,7.45,7.45,0,0,1,2.86-3.29h0a6.92,6.92,0,0,1,1.64-.78s0,.13,0,.31c.07.38.28,1,.84,1,.41,0,5.56-1.9,11.57-4.33h0c5.87-2.39,12.57-5.3,16.46-7.45a4.71,4.71,0,0,1,4.37,4.19A6.84,6.84,0,0,1,99.09,55.1Z" transform="translate(-6.72 -3.29)"/><path class="cls-37" d="M79.33,58.59h0a58.66,58.66,0,0,0-8.12,1.77,3.4,3.4,0,0,0-1.11,1L67.48,62c-1.35-2.81.21-7.08.21-7.08h0l1.68-.47c.07.38.28,1,.84,1,.41,0,5.56-1.9,11.57-4.33C78.93,54.14,79.33,58.59,79.33,58.59Z" transform="translate(-6.72 -3.29)"/><path class="cls-38" d="M67.69,54.91s.78,2.52,5.32.38c0,0,6.12-5.4,7.36-10.81l-1.13-1.7s-3.36-.54-5.12,1.22a23.26,23.26,0,0,1-2.46,7c-.58,1-4,3-4,3Z" transform="translate(-6.72 -3.29)"/><path class="cls-39" d="M66.66,61s3.3,4.22,3.5,5.42.72,12.75.72,12.75a9.65,9.65,0,0,1,4.4-7.8,14.89,14.89,0,0,1,0-3.23,15.48,15.48,0,0,1,.82-3c.14-.69-1.9-6.32-7-7a4.54,4.54,0,0,0-1.54.93A4.3,4.3,0,0,0,66.66,61Z" transform="translate(-6.72 -3.29)"/><path class="cls-40" d="M107.84,113.79a11.47,11.47,0,0,1-2.61,3.7L99.57,109s-2.43,1.35-3.12,1.21c-1.81-.35-1.81-4.28-1.81-4.28a29.84,29.84,0,0,1,.72-9.41.1.1,0,0,0,0,0c.85-3.3,2.56-6.63,5.86-8.37,0,0,2.23-.74,3.85,3.06l4.62,3.15S110.91,106.3,107.84,113.79Z" transform="translate(-6.72 -3.29)"/><path class="cls-41" d="M107.84,113.78h0a11.81,11.81,0,0,1-2.41,3.83L99.57,109s-2.43,1.35-3.12,1.21c-1.81-.35-1.81-4.28-1.81-4.28a29.84,29.84,0,0,1,.72-9.41c-.09.59-1.3,8.25.37,10.81s4.66-14.33,9.35-16.16c0,0-4.76,7.83-4.34,13.25S107.84,113.78,107.84,113.78Z" transform="translate(-6.72 -3.29)"/><path class="cls-42" d="M93.2,82.33s1.76,1.69,4.33,4h0a38.12,38.12,0,0,0-11.41-.9c-3.83.45-5.13,1.2-5.55,1.58a28.36,28.36,0,0,0-7.29-4.2l5.91-3.67s5.7-12.64,6.52-19.07l-1.44-2.39,4.35.58a30,30,0,0,0,7.83.76,9.52,9.52,0,0,0,4.73,1l3,1.37v.1C104.32,63.53,100.57,74.87,93.2,82.33Z" transform="translate(-6.72 -3.29)"/><path class="cls-43" d="M75.28,71.38A6.67,6.67,0,0,0,78,73a11.35,11.35,0,0,0,1.82-4.07s-.67,1.89-1.52,2.32A4.87,4.87,0,0,1,75.28,71.38Z" transform="translate(-6.72 -3.29)"/><path class="cls-44" d="M66.66,61s2.68,3.41,3.47,3.41c1.06,0,1.66-1.6.92-3.72a3.84,3.84,0,0,0-2.11-2.11S67.57,58.83,66.66,61Z" transform="translate(-6.72 -3.29)"/><path class="cls-45" d="M67,61.46a6,6,0,0,1,2.48-2.58l-.56-.29A4.1,4.1,0,0,0,66.66,61Z" transform="translate(-6.72 -3.29)"/><path class="cls-46" d="M70.24,59.46a3.75,3.75,0,0,1,1.07,3.36c-.3,2.21-1.66,1.5-2.21,1a2.45,2.45,0,0,0,1.19.76c.61.08,1.4-.69,1.41-2.2A4.73,4.73,0,0,0,70.24,59.46Z" transform="translate(-6.72 -3.29)"/><path class="cls-47" d="M99.09,55.1h0l-.4.16A8.19,8.19,0,0,1,96,48.9c0-3.8,2.3-5.27,2.3-5.27a4.71,4.71,0,0,1,4.37,4.19A6.84,6.84,0,0,1,99.09,55.1Z" transform="translate(-6.72 -3.29)"/><path class="cls-48" d="M100.91,49.72h0l-.09,0A2,2,0,0,1,100,48.2a1.29,1.29,0,0,1,.73-1.2,1.12,1.12,0,0,1,1,1A1.64,1.64,0,0,1,100.91,49.72Z" transform="translate(-6.72 -3.29)"/><path class="cls-49" d="M100.57,49.23h0l-.06,0a1,1,0,0,1-.43-.88,1.21,1.21,0,0,1,.36-.88.7.7,0,0,1,.66.63A1,1,0,0,1,100.57,49.23Z" transform="translate(-6.72 -3.29)"/><path class="cls-50" d="M77.06,50.87l-1.78-4.13.54,5.62S76.46,51.63,77.06,50.87Z" transform="translate(-6.72 -3.29)"/><polygon class="cls-51" points="68.04 51.2 83.56 45.09 82.98 46.36 68.04 51.84 68.04 51.2"/><polygon class="cls-23" points="84.06 46.22 84.73 44.51 87.86 42.93 87.09 45.37 84.06 46.22"/><path class="cls-23" d="M101.19,50.67a4.3,4.3,0,0,1-1,1.91l.59.59a4,4,0,0,0,1.31-2.1Z" transform="translate(-6.72 -3.29)"/><g class="cls-52"><path class="cls-28" d="M104.4,91.73a4.28,4.28,0,0,0-3.2-3.47l.07-.34a4.64,4.64,0,0,1,3.47,3.75Z" transform="translate(-6.72 -3.29)"/><path class="cls-28" d="M103.17,93.51a7.74,7.74,0,0,0-4.39-3.45l.08-.33a7.93,7.93,0,0,1,4.62,3.61Z" transform="translate(-6.72 -3.29)"/><path class="cls-28" d="M102.12,95.51A13.26,13.26,0,0,0,96.68,93l.06-.35a13.64,13.64,0,0,1,5.61,2.55Z" transform="translate(-6.72 -3.29)"/><path class="cls-28" d="M101.08,98.77a18.63,18.63,0,0,0-5.6-2.71l.09-.34a19.15,19.15,0,0,1,5.72,2.77Z" transform="translate(-6.72 -3.29)"/><path class="cls-28" d="M100.32,101.77c-3.68-1.75-5.56-1.51-5.58-1.51l0-.34c.08,0,2-.27,5.78,1.54Z" transform="translate(-6.72 -3.29)"/><path class="cls-28" d="M97.9,104.94a14.46,14.46,0,0,1-3.4-.38l.09-.34a14.92,14.92,0,0,0,5.3.23l0,.35A14.85,14.85,0,0,1,97.9,104.94Z" transform="translate(-6.72 -3.29)"/><path class="cls-28" d="M95.19,109h-.07v-.35a8.54,8.54,0,0,0,4.35-1.46l.18.3A9,9,0,0,1,95.19,109Z" transform="translate(-6.72 -3.29)"/><path class="cls-28" d="M99.74,109H99.4c0-.12.18-12.56,5.55-17.94l.25.25C99.93,96.55,99.75,108.85,99.74,109Z" transform="translate(-6.72 -3.29)"/></g><path class="cls-53" d="M74.12,44a39.33,39.33,0,0,0,4,5.43c2.29,2.23,5,.12,5,.12l.5-.9a38.84,38.84,0,0,1-4.39-5.87S76.11,42.19,74.12,44Z" transform="translate(-6.72 -3.29)"/></g></g></svg>