<?xml version="1.0" encoding="utf-8"?>
<!-- Generator: Adobe Illustrator 24.0.0, SVG Export Plug-In . SVG Version: 6.00 Build 0)  -->
<svg version="1.1" id="Layer_1" xmlns="http://www.w3.org/2000/svg" xmlns:xlink="http://www.w3.org/1999/xlink" x="0px" y="0px"
	 viewBox="0 0 106.6 114.3" style="enable-background:new 0 0 106.6 114.3;" xml:space="preserve">
<style type="text/css">
	.st0{fill:#4D4D4D;}
	.st1{fill:#FFFFFF;}
	.st2{fill:#0DA5BF;}
	.st3{opacity:0.3;fill:#FFFFFF;}
	.st4{fill:#808080;}
	.st5{fill:#FFB294;}
	.st6{fill:#25435C;}
	.st7{fill:#CF3E2D;}
	.st8{fill:#FF4A51;}
	.st9{opacity:0.3;fill:#CF3E2D;}
	.st10{opacity:0.5;fill:#227FBC;}
	.st11{fill:#172935;}
	.st12{fill:#722811;}
</style>
<title>5</title>
<g>
	<g>
		<path d="M62.7,7.9l0,72.1c0,2-1.4,4.4-3.1,5.4l-29.5,17l-0.9,2.7l-2.8-1.6c-0.6-0.3-0.9-1-0.9-2v-77c0-2,1.4-4.4,3.1-5.4l31-17.9
			c0.8-0.5,1.6-0.5,2.2-0.2c0,0,2.8,1.6,2.8,1.6L62.7,7.9z"/>
		<g>
			<path class="st0" d="M31.2,104.8l31-17.9c1.7-1,3.1-3.4,3.1-5.4v-77c0-2-1.4-2.8-3.1-1.8l-31,17.9c-1.7,1-3.1,3.4-3.1,5.4v77
				C28.1,105,29.5,105.8,31.2,104.8z"/>
			<path class="st1" d="M64,5.4v72c0,1.1-0.8,2.5-1.8,3.1l-31,17.9c-0.6,0.3-1.1,0.3-1.4,0c-0.2-0.2-0.4-0.6-0.4-1v-72
				c0-1.1,0.8-2.5,1.8-3.1l31-17.9c0.3-0.2,0.6-0.3,0.9-0.2C63.6,4.2,64,4.6,64,5.4z"/>
			<path class="st2" d="M63.4,5.2v72c0,1.1-0.8,2.5-1.8,3.1l-31,17.9c-0.3,0.2-0.6,0.3-0.9,0.2c-0.2-0.2-0.4-0.6-0.4-1v-72
				c0-1.1,0.8-2.5,1.8-3.1l31-17.9c0.3-0.2,0.6-0.3,0.9-0.2C63.3,4.3,63.4,4.7,63.4,5.2z"/>
			<polygon class="st3" points="51.7,11.2 42.3,16.7 30.1,41.4 30.1,54.3 			"/>
			<polygon class="st3" points="30.1,72.4 30.1,79.8 62.8,16.2 62.8,9 			"/>
			<path class="st3" d="M30.1,82.8v14.6c0,0.1,0,0.2,0,0.3c0.1,0,0.1-0.1,0.2-0.1l8.1-4.7l24.3-49.9V18.6L30.1,82.8z"/>
			<path class="st4" d="M43,96.3l7.5-4.3c0.8-0.5,1.4-1.6,1.4-2.5s-0.6-1.3-1.4-0.8L43,93c-0.8,0.5-1.4,1.6-1.4,2.5
				S42.2,96.8,43,96.3z"/>
		</g>
	</g>
	<g>
		<defs>
			<path id="SVGID_1_" d="M63.4,5.2v72c0,1.1-0.8,2.5-1.8,3.1l-31,17.9c-0.3,0.2-0.6,0.3-0.9,0.2c-0.2-0.2-0.4-0.6-0.4-1v-72
				c0-1.1,0.8-2.5,1.8-3.1l31-17.9c0.3-0.2,0.6-0.3,0.9-0.2C63.3,4.3,63.4,4.7,63.4,5.2z"/>
		</defs>
		<clipPath id="SVGID_2_">
			<use xlink:href="#SVGID_1_"  style="overflow:visible;"/>
		</clipPath>
	</g>
	<g>
		<g>
			<path class="st1" d="M47.2,28.4C46,29.1,45,28.7,45,27.5c0-1.2,1-2.7,2.2-3.4c1.2-0.7,2.2-0.3,2.2,0.9
				C49.4,26.2,48.4,27.7,47.2,28.4z M47.2,24.7c-0.8,0.5-1.5,1.5-1.5,2.4c0,0.8,0.7,1.1,1.5,0.6c0.8-0.5,1.5-1.5,1.5-2.4
				C48.7,24.5,48,24.3,47.2,24.7z"/>
			<path class="st1" d="M50.6,21.3c-0.1,0-0.1,0.1-0.2,0c-0.8-0.4-2-0.2-3.2,0.5c-0.7,0.4-1.3,0.9-1.9,1.6c-0.1,0.1-0.3,0.2-0.3,0.1
				c-0.1-0.1,0-0.3,0.1-0.4c0.7-0.7,1.4-1.3,2.1-1.7c1.4-0.8,2.6-1,3.6-0.5c0.1,0,0.1,0.2,0,0.4C50.7,21.2,50.6,21.3,50.6,21.3z"/>
			<path class="st1" d="M51.1,26.7c0,0-0.1,0-0.1,0c-0.1,0-0.2-0.1-0.1-0.3c0.4-1,0.7-1.9,0.7-2.7c0-0.5-0.1-0.9-0.2-1.3
				c0-0.1,0-0.3,0.2-0.4c0.1-0.1,0.3-0.1,0.3,0c0.2,0.4,0.3,0.9,0.3,1.5c0,0.9-0.3,2-0.8,3C51.3,26.5,51.2,26.6,51.1,26.7z"/>
			<path class="st1" d="M47.2,31.2c-1,0.6-1.9,0.8-2.7,0.8c-0.1,0-0.2-0.1-0.1-0.3c0.1-0.2,0.2-0.3,0.4-0.3c1.6,0.1,3.8-1.3,5.2-3.3
				c0.1-0.2,0.3-0.2,0.4-0.2c0.1,0.1,0.1,0.2,0,0.4C49.4,29.5,48.3,30.5,47.2,31.2z"/>
			<path class="st1" d="M43,31c-0.1,0.1-0.2,0.1-0.2,0c-0.4-0.5-0.6-1.2-0.6-2c0-1.1,0.4-2.5,1.1-3.7c0.1-0.2,0.3-0.3,0.4-0.2
				c0.1,0,0.1,0.2,0,0.3c-0.6,1.1-1,2.3-1,3.3c0,0.7,0.2,1.3,0.5,1.8c0.1,0.1,0,0.3-0.1,0.4C43.1,31,43.1,31,43,31z"/>
			<path class="st1" d="M39.7,30.7c-0.1,0.1-0.2,0-0.2-0.1v-4.8l-6.6,3.8c-0.1,0.1-0.2,0-0.2-0.1c0-0.1,0.1-0.2,0.2-0.3l6.9-4v5.2
				C39.9,30.5,39.8,30.7,39.7,30.7z"/>
			<path class="st1" d="M58,20.2l-6.1,3.5c-0.1,0.1-0.2,0-0.2-0.1c0-0.1,0.1-0.2,0.2-0.3l5.8-3.3v-8c0-0.1,0.1-0.2,0.2-0.3
				s0.2,0,0.2,0.1V20.2z"/>
			<path class="st1" d="M60.8,59.7c-0.1,0.1-0.2,0-0.2-0.1V35.9l-6,3.4V21.9c0-0.1,0.1-0.2,0.2-0.3c0.1-0.1,0.2,0,0.2,0.1v17.1
				l6-3.4v24C61,59.5,60.9,59.6,60.8,59.7z"/>
			<path class="st1" d="M47.2,54.4c-0.1,0.1-0.2,0-0.2-0.1V31c0-0.1,0.1-0.2,0.2-0.3c0.1-0.1,0.2,0,0.2,0.1v23.4
				C47.3,54.3,47.3,54.4,47.2,54.4z"/>
			<path class="st1" d="M40.4,42l-3.5,2c-0.1,0.1-0.2,0-0.2-0.1s0.1-0.2,0.2-0.3l3.5-2c0.1-0.1,0.2,0,0.2,0.1
				C40.5,41.9,40.5,42,40.4,42z"/>
			<path class="st1" d="M54.8,68.2c-0.1,0.1-0.2,0-0.2-0.1v-29c0-0.1,0.1-0.2,0.2-0.3c0.1-0.1,0.2,0,0.2,0.1v29
				C55,68.1,54.9,68.2,54.8,68.2z"/>
			<path class="st1" d="M33.8,68c-0.1,0.1-0.2,0-0.2-0.1V52.6l3.1-1.8V32.1l5.8-3.4c0.1-0.1,0.2,0,0.2,0.1s-0.1,0.2-0.2,0.3L37,32.3
				V51L34,52.8v15C34,67.9,33.9,68,33.8,68z"/>
			<path class="st1" d="M42.1,58l-8.4,4.8c-0.1,0.1-0.2,0-0.2-0.1c0-0.1,0.1-0.2,0.2-0.3l8.4-4.8c0.1-0.1,0.2,0,0.2,0.1
				C42.3,57.8,42.2,57.9,42.1,58z"/>
			<path class="st1" d="M33.6,29c0,0.4-0.4,1-0.8,1.2c-0.4,0.3-0.8,0.1-0.8-0.3c0-0.4,0.4-1,0.8-1.2C33.3,28.4,33.6,28.6,33.6,29z"
				/>
			<path class="st1" d="M41.4,41.2c0,0.4-0.4,1-0.8,1.2c-0.4,0.3-0.8,0.1-0.8-0.3s0.4-1,0.8-1.2C41.1,40.6,41.4,40.7,41.4,41.2z"/>
			<path class="st1" d="M58.6,11.4c0,0.4-0.4,1-0.8,1.2c-0.4,0.3-0.8,0.1-0.8-0.3s0.4-1,0.8-1.2C58.2,10.9,58.6,11,58.6,11.4z"/>
			<path class="st1" d="M42.9,57.3c0,0.4-0.4,1-0.8,1.2c-0.4,0.3-0.8,0.1-0.8-0.3s0.4-1,0.8-1.2C42.6,56.7,42.9,56.9,42.9,57.3z"/>
			<path class="st1" d="M39.4,76.4c0,0.4-0.4,1-0.8,1.2c-0.4,0.3-0.8,0.1-0.8-0.3s0.4-1,0.8-1.2C39,75.9,39.4,76,39.4,76.4z"/>
			<path class="st1" d="M47.2,65c0,0.4-0.4,1-0.8,1.2c-0.4,0.3-0.8,0.1-0.8-0.3c0-0.4,0.4-1,0.8-1.2C46.8,64.5,47.2,64.6,47.2,65z"
				/>
			<path class="st1" d="M34.6,67.4c0,0.4-0.4,1-0.8,1.2c-0.4,0.3-0.8,0.1-0.8-0.3c0-0.4,0.4-1,0.8-1.2C34.2,66.8,34.6,67,34.6,67.4z
				"/>
			<path class="st1" d="M48,53.8c0,0.4-0.4,1-0.8,1.2c-0.4,0.3-0.8,0.1-0.8-0.3c0-0.4,0.4-1,0.8-1.2C47.6,53.2,48,53.4,48,53.8z"/>
			<path class="st1" d="M55.6,67.6c0,0.4-0.4,1-0.8,1.2C54.4,69.1,54,69,54,68.5s0.4-1,0.8-1.2C55.3,67,55.6,67.2,55.6,67.6z"/>
			<path class="st1" d="M61.6,58.9c0,0.4-0.4,1-0.8,1.2c-0.4,0.3-0.8,0.1-0.8-0.3s0.4-1,0.8-1.2C61.2,58.3,61.6,58.4,61.6,58.9z"/>
		</g>
		<path class="st1" d="M38.6,77.1c-0.1,0.1-0.2,0-0.2-0.1V59.9c0-0.1,0.1-0.2,0.2-0.3c0.1-0.1,0.2,0,0.2,0.1v17.1
			C38.8,76.9,38.7,77,38.6,77.1z"/>
		<path class="st1" d="M46.4,65.7l-7.8,4.5c-0.1,0.1-0.2,0-0.2-0.1c0-0.1,0.1-0.2,0.2-0.3l7.8-4.5c0.1-0.1,0.2,0,0.2,0.1
			C46.6,65.5,46.5,65.6,46.4,65.7z"/>
	</g>
	<g>
		<g>
			<g>
				<path class="st5" d="M76.9,64.2l-0.4,1l-1.2,0.9l-0.7,1.4l-0.2,0.8c0,0.6,0.5,0.5,0.6,0.1l0.1-0.4l0.6-0.5l0.2,2.4l-0.7,2.3
					l0.5,0.4l2.1-0.9l0.9-1.3v-4.7v-1.4L76.9,64.2z"/>
				<path class="st5" d="M69.4,104.8c-0.1,0.3-0.1,0.5-0.2,0.7c-0.8-0.3-1.5-0.2-2.1,0.5l-0.6,1l2.7,2.3H72l1.2-1.2l-0.5-2.6
					C71.6,105.5,70.6,105.2,69.4,104.8z"/>
				<path class="st6" d="M73.1,107.6c-0.4,0.8-2,1.4-3.6,1.1c-1.5-0.6-2.2-1.2-2.5-2.1c0.4-0.6,1.3-1,2.2-1l0.2-0.5l-1.2-0.7
					c-1.2-0.5-2-0.2-2.6,0.7c-0.4,1.7,0.1,2.8,1.3,3.6l1.8,1.4c0.7,1.7,1.4,2.5,2.8,2.3c1.5-0.2,2-0.8,2.1-2.1
					C73.6,109.3,73.6,108.2,73.1,107.6z"/>
				<path class="st7" d="M73.2,84.2l1.6-17.2l-8.7,6.7l1.1,10.2c0.6,5.8,1.7,18.5,1.2,21.7c1.2,1.5,4.5,1.5,5.6,1.5
					C72.6,100.1,77.6,92.1,73.2,84.2z"/>
				<path class="st5" d="M53.6,107.6h-1.7l-1.2,1.1l1.2,2.2l9.1-0.7l0.3-2.1l-0.6-1.6c-1.3-0.1-2.5-0.1-3.8-0.5
					C56.5,107.1,55.3,107.5,53.6,107.6z"/>
				<path class="st8" d="M66.6,75.3l-6.1,10.9c2.8,6,1.1,19.4,1.8,21c-0.8,1.1-6.6,0.5-6.2-0.5c0.4-2.4,0.4-3.8,0.2-6.1
					c-0.3-3-0.9-7.6-1.3-18.1c1.3-6,2.6-11.5,4.3-15.6c0.4-1,0.8-1.9,1.2-2.8l14.1-2.1C76.5,71.2,71.5,73.2,66.6,75.3z"/>
				<path class="st6" d="M50.8,107.6c-1.8,0.1-1.8,1.3-1.5,2.2c0.5,1.2,2,2.2,3.3,2.2c1.5,0,5.3,0.4,5.3,0.4c1.4,0.5,2.4,0.4,3.6,0
					c0.5-1.6,0.6-3-0.2-4.3c-0.9,2.3-4.6,2.5-8.1,2.1c-0.8-0.1-1.5-1-1.1-1.6c0.3-0.4,0.8-0.8,1.5-0.9H50.8z"/>
				<path class="st9" d="M66.6,67.8c-4.1,0.7-7,7.7-9.8,15c-1.2,3.5-0.8,10.8-0.5,17.7c-0.3-3-0.9-7.5-1.3-18.1
					c1.3-6,2.6-11.5,4.3-15.6L66.6,67.8z"/>
				<path class="st6" d="M76.2,65.5c0.6-2.7,0.3-6.6,0.3-10.7l-1.6-5.4l1.1-7.3c2.5,0.5,3.2,6.1,3.7,12.6c0.7,2.8-0.7,7.5-1.2,11.5
					C77.8,66.6,77,66.3,76.2,65.5z"/>
				<path class="st6" d="M73.5,56.2c0,2.1,0.5,2.2,2.1,7.6c-1.9,2.9-6.1,4.1-10.3,4.1c-1.8,0-4-0.4-6.2-0.9
					c-0.2-3.7,1.4-8.6,0.7-11.7c-3.6-1-2.1-4.6-1.1-6.7c0.1-0.3,0.3-0.6,0.4-0.9c0.6-1.8,0.5-3.4,0.5-3.4s5.5-1.7,8.2-2.8
					c2.7-1.1,8.3,0.6,8.3,0.6s1.4,0.9,0.7,4.7C75.9,51.6,73.6,54,73.5,56.2z"/>
				<path class="st10" d="M65.2,67.8c-1.8,0-4-0.4-6.2-0.9c-0.2-3.7,1.4-8.6,0.7-11.7c-3.6-1-2.1-4.6-1.1-6.7
					c0.1-0.3,0.3-0.6,0.4-0.9c0.5-0.1,1.1-0.2,1.6-0.3c0,7.7,1.4,9.8,2.1,13.3C63.4,63.6,65.2,67.8,65.2,67.8z"/>
				<path d="M62,29.6c0,0-5.2,3.6,1.6,11.9c0,0,4.7,2.1,6.9-1.7c2.2-3.9,2.7-9.5-1.4-11.6C65,26.1,61.5,27.3,62,29.6z"/>
				<path class="st5" d="M63.8,38.5l0.5,4.9c1.2,1,5.6-0.3,5.5-1.8l-1.4-4.1L63.8,38.5z"/>
				<path class="st11" d="M64.2,42.6l-1.4,0.6c0,0,2.1,2.2,5.7,0.4c2.3-1.1,2.1-2.5,2.1-2.5l-1.1-0.3C69,41.9,66.6,42.8,64.2,42.6z"
					/>
				<path class="st12" d="M62,29.6c0,0-5.2,3.6,1.6,11.9c0,0,4.7,2.1,6.9-1.7c2.2-3.9,2.7-9.5-1.4-11.6C65,26.1,61.5,27.3,62,29.6z"
					/>
			</g>
		</g>
		<path class="st6" d="M62,48.3c0,0,0,0.1,0,0.1c-0.1,0.6-0.3,1.2-0.7,1.5c-0.3,0.2-0.6,0.3-0.9,0.3c-1.1-0.1-2.1-0.1-3-0.2
			c-1.6-0.1-5.5-1.1-6.6-1.4c-0.7-0.2-1.3-0.4-1.8-0.8c-1.4-1.9-1.8-8.3-1.8-11.9c0.4-0.7,2-1.1,2.3-0.6l2.3,8.1l7.7,0.9
			c0,0,0,0,0.1,0C61.4,44.4,62.2,46.6,62,48.3z"/>
		<path class="st5" d="M47.3,35.9c0-0.1-0.2-1.4-0.2-1.4l-0.9-1.7l-0.6-2.3v-0.8c0.1-0.3,0.2-0.5,0.5-0.4L45.9,29
			c-0.1-0.6,0.3-0.8,0.7-0.5c-0.1-0.6,0.4-0.8,0.7-0.4l0.7,1.2L47.8,28l-0.3-1.7c-0.1-0.5,0.3-0.7,0.5-0.2l0.5,2
			c0.2-0.1,0.3,0.1,0.4,0.5c0,0,0.1,0.6,0.2,1c0.1,0.4,0.4,0.9,0.5,1.4c0.1,0.5-0.2,2.4-0.2,2.4l0.2,1.9
			C49.5,35.9,47.6,36.4,47.3,35.9z"/>
	</g>
</g>
</svg>
